<?xml version="1.0" standalone="no"?>
<!DOCTYPE svg PUBLIC "-//W3C//DTD SVG 20010904//EN"
 "http://www.w3.org/TR/2001/REC-SVG-20010904/DTD/svg10.dtd">
<svg version="1.0" xmlns="http://www.w3.org/2000/svg"
 width="1024.000000pt" height="768.000000pt" viewBox="0 0 1024.000000 768.000000"
 preserveAspectRatio="xMidYMid meet">
<metadata>
Created by potrace 1.16, written by Peter Selinger 2001-2019
</metadata>
<g transform="translate(0.000000,768.000000) scale(0.100000,-0.100000)"
fill="#000000" stroke="none">
<path d="M5094 7191 c-57 -42 -96 -86 -150 -171 -26 -41 -48 -76 -49 -78 -2
-2 -40 23 -86 54 -208 142 -380 178 -509 108 -93 -51 -165 -159 -190 -288
l-13 -62 -61 -23 c-190 -72 -499 -258 -711 -427 -136 -108 -345 -319 -445
-447 -41 -53 -78 -96 -81 -97 -3 0 -9 26 -12 58 -6 69 -34 129 -77 166 -54 45
-129 29 -189 -40 -19 -21 -118 -127 -222 -235 -153 -161 -189 -204 -195 -234
-11 -61 2 -107 41 -142 30 -28 42 -33 86 -33 27 0 58 4 68 10 16 8 19 3 25
-48 7 -57 7 -57 -31 -90 -21 -19 -71 -57 -111 -85 -39 -28 -72 -55 -72 -61 0
-6 5 -64 11 -129 25 -292 133 -525 292 -632 l50 -34 -39 -6 c-167 -27 -261
-72 -359 -170 -128 -127 -181 -265 -172 -445 8 -164 64 -291 176 -398 111
-106 225 -153 387 -160 l110 -4 -46 -48 c-54 -55 -112 -162 -131 -240 -19 -83
-15 -212 11 -295 45 -145 163 -347 306 -526 87 -108 275 -295 384 -383 269
-216 648 -416 1015 -537 l100 -32 34 -69 c43 -87 115 -162 187 -195 51 -23 65
-25 152 -21 111 5 163 25 237 90 44 39 47 40 60 22 8 -11 15 -23 15 -27 0 -20
100 -111 145 -135 73 -37 170 -37 248 1 61 31 117 88 150 154 l20 41 44 -44
c67 -69 138 -98 251 -102 88 -4 97 -2 157 27 78 39 129 94 184 201 36 68 46
79 74 86 54 11 264 93 397 154 409 188 744 439 1005 755 162 197 295 430 329
575 43 181 -5 364 -130 500 l-52 55 87 -3 c433 -17 736 431 558 828 -80 181
-247 305 -462 343 l-70 12 36 22 c55 34 142 131 182 203 69 125 112 291 124
475 l6 102 -34 23 c-19 13 -64 46 -101 74 l-68 51 0 68 c0 62 2 68 18 61 9 -4
38 -9 63 -12 104 -9 167 73 139 180 -10 35 -36 68 -139 173 -69 71 -171 178
-227 237 -106 112 -137 130 -200 114 -64 -16 -114 -112 -114 -220 -1 -59 -1
-60 -18 -40 -9 12 -48 61 -87 110 -190 242 -486 502 -764 674 -91 57 -352 189
-414 211 -27 10 -39 20 -43 39 -31 140 -67 213 -141 280 -81 74 -175 96 -291
69 -67 -16 -237 -100 -302 -150 -30 -23 -55 -38 -57 -32 -7 21 -94 168 -119
200 -32 42 -80 73 -115 73 -14 0 -44 -13 -65 -29z m128 -56 c34 -37 108 -158
108 -178 0 -9 -51 -12 -185 -12 -102 0 -185 2 -185 5 1 23 23 34 67 31 51 -2
91 19 113 60 15 27 -4 59 -35 59 -31 0 -32 16 -3 47 33 35 79 31 120 -12z
m-694 -50 c34 -8 90 -29 125 -46 68 -34 156 -90 157 -100 0 -4 -53 -14 -117
-24 -129 -19 -386 -81 -473 -114 -30 -12 -59 -21 -64 -21 -14 0 4 72 36 143
l31 68 14 -33 c20 -48 50 -68 106 -68 83 0 138 43 114 90 -25 50 -69 52 -87 5
-11 -30 -46 -32 -63 -4 -14 22 6 70 36 88 49 32 100 36 185 16z m1404 -11 c48
-24 66 -94 30 -113 -22 -12 -37 -3 -46 25 -13 42 -77 37 -91 -6 -16 -52 36
-93 117 -94 39 0 53 5 78 29 16 16 30 37 30 47 0 34 17 18 43 -39 27 -61 49
-134 43 -141 -2 -2 -48 11 -103 28 -139 45 -318 87 -451 107 -114 17 -114 17
-91 36 37 29 139 87 194 109 95 38 187 42 247 12z m-433 -189 c426 -53 833
-204 1194 -442 332 -219 551 -436 855 -848 169 -229 314 -382 482 -510 l102
-77 -6 -77 c-33 -377 -175 -620 -404 -691 -113 -35 -270 -22 -376 32 -155 78
-321 241 -500 487 -163 224 -275 358 -402 482 -322 312 -651 493 -1019 560
-163 30 -400 30 -566 0 -364 -64 -723 -263 -1029 -570 -136 -137 -229 -248
-373 -446 -199 -275 -340 -417 -496 -499 -105 -55 -169 -69 -282 -64 -86 4
-106 9 -174 41 -54 26 -94 55 -135 97 -112 114 -194 333 -207 551 l-6 106 81
57 c158 111 333 296 514 540 154 209 234 308 335 412 573 588 1318 898 2113
878 96 -2 231 -11 299 -19z m-2801 -950 c39 -44 52 -90 52 -185 0 -65 -4 -81
-27 -115 -50 -75 -171 -220 -266 -320 l-96 -100 -1 70 0 71 66 64 c65 65 183
214 220 279 14 24 16 35 7 38 -7 2 -26 14 -44 26 -78 53 -95 130 -40 179 45
41 90 38 129 -7z m5039 0 c49 -56 14 -152 -67 -185 -16 -7 -30 -18 -30 -24 0
-34 263 -366 290 -366 6 0 10 -31 10 -70 0 -38 -4 -70 -9 -70 -17 0 -213 214
-292 320 -88 116 -104 158 -95 240 9 85 24 126 58 161 28 27 36 30 72 26 27
-4 49 -15 63 -32z m-5232 -114 c3 -17 26 -48 52 -71 l45 -42 -48 -70 c-77
-113 -192 -237 -259 -279 -82 -51 -169 11 -150 107 5 30 37 69 173 210 92 95
170 173 174 173 3 1 9 -12 13 -28z m5636 -329 c18 -46 11 -92 -20 -123 -58
-57 -115 -35 -234 90 -87 92 -187 223 -187 246 0 6 14 21 30 34 17 12 41 42
53 67 l21 45 164 -168 c90 -92 167 -178 173 -191z m-2661 255 c148 -35 216
-60 365 -131 123 -59 267 -145 280 -166 4 -7 -339 -10 -987 -10 -988 0 -993 1
-968 20 105 82 321 191 486 246 185 60 288 74 519 70 170 -4 216 -8 305 -29z
m756 -379 c24 -17 44 -35 44 -40 0 -4 -511 -8 -1135 -8 -669 0 -1135 4 -1135
9 0 5 17 23 38 40 l37 30 1053 1 1054 0 44 -32z m-2236 -358 l0 -310 171 0
c150 0 170 2 165 15 -16 43 -37 127 -33 132 3 3 67 -9 143 -26 111 -25 159
-31 255 -31 l119 0 0 30 c0 29 0 29 -67 32 l-68 3 -3 153 -3 152 66 0 65 0 24
47 24 48 23 -48 23 -47 63 0 64 0 -3 -152 -3 -153 -67 -3 c-68 -3 -68 -3 -68
-32 l0 -30 165 0 165 0 0 30 0 30 -70 0 -70 0 0 155 0 155 63 0 64 0 18 40
c10 22 22 40 26 40 5 0 18 -18 29 -40 20 -40 21 -40 80 -40 l60 0 0 -155 0
-155 -65 0 -65 0 0 -30 0 -30 160 0 160 0 0 30 0 30 -70 0 -70 0 0 155 0 155
63 0 64 0 18 40 c10 22 22 40 26 40 5 0 18 -18 29 -40 20 -40 21 -40 80 -40
l60 0 0 -155 0 -155 -65 0 -65 0 0 -30 0 -30 80 0 80 0 0 -45 0 -45 225 0 225
0 0 310 0 311 40 -32 40 -32 0 -1286 0 -1286 -273 -175 c-260 -166 -384 -246
-776 -499 -96 -61 -179 -110 -186 -107 -6 2 -272 171 -591 376 -318 205 -589
378 -601 386 l-23 14 0 1287 0 1287 32 33 c18 18 36 33 40 33 4 0 8 -139 8
-310z m-120 -1077 l0 -1278 288 -185 c158 -101 337 -216 397 -255 61 -39 149
-95 197 -125 48 -30 82 -57 77 -59 -6 -2 -54 7 -107 19 -308 71 -673 246 -962
462 -154 116 -265 215 -445 400 -103 107 -187 184 -212 197 -61 30 -148 51
-216 51 l-59 0 65 69 c203 216 221 533 44 766 -50 65 -104 113 -169 150 -46
26 -46 26 46 44 75 14 170 58 255 118 90 64 242 219 326 333 202 273 269 358
360 459 55 61 103 111 108 111 4 0 7 -575 7 -1277z m2731 1061 c41 -49 128
-163 194 -254 242 -334 456 -513 656 -551 35 -6 70 -13 78 -16 9 -2 -7 -18
-40 -39 -168 -110 -258 -269 -267 -470 -7 -175 41 -304 161 -430 l70 -74 -69
0 c-144 0 -243 -46 -352 -163 -398 -427 -752 -681 -1182 -850 -156 -61 -402
-129 -416 -115 -2 3 98 69 221 149 124 79 305 195 403 258 97 62 214 137 260
167 l82 54 0 1277 1 1278 63 -66 c35 -37 97 -107 137 -155z m-1992 -38 c-23
-67 -45 -125 -49 -130 -8 -8 -148 20 -172 35 -8 5 33 55 123 150 l134 142 3
-38 c2 -26 -10 -78 -39 -159z m3362 -797 c243 -70 418 -341 380 -588 -29 -189
-128 -330 -290 -415 -376 -197 -825 92 -798 514 23 358 358 590 708 489z
m-5360 5 c205 -60 355 -223 395 -431 23 -118 4 -234 -58 -357 -37 -73 -141
-179 -215 -219 -66 -35 -190 -67 -264 -67 -296 0 -549 253 -549 549 0 138 67
290 172 392 59 58 170 121 243 138 66 15 216 13 276 -5z m361 -1055 c112 -24
130 -38 378 -294 429 -441 945 -732 1472 -829 102 -19 138 -30 178 -56 27 -18
50 -35 50 -37 0 -3 -33 -3 -72 1 -564 51 -1176 362 -1653 841 -61 60 -141 143
-179 184 -82 87 -143 119 -244 128 -244 20 -460 -212 -427 -462 37 -274 365
-709 758 -1003 255 -191 606 -364 956 -471 634 -195 1351 -183 1976 33 491
169 867 401 1177 725 266 277 437 576 438 761 0 167 -89 309 -240 383 -59 29
-73 32 -160 32 -142 0 -168 -16 -359 -215 -263 -276 -478 -446 -778 -618 -281
-160 -585 -267 -877 -307 -161 -22 -175 -19 -100 26 48 29 78 39 166 53 325
51 709 217 1037 449 166 117 298 231 486 423 210 213 246 238 367 257 196 30
403 -86 492 -276 30 -64 48 -175 41 -247 -20 -208 -195 -501 -469 -787 -434
-454 -1105 -776 -1836 -880 -195 -28 -674 -25 -870 6 -564 87 -1097 303 -1501
607 -95 72 -339 289 -339 302 0 4 -21 28 -45 55 -166 178 -328 444 -370 606
-17 67 -19 185 -4 250 37 163 182 310 350 355 66 18 131 20 201 5z m753 -953
c33 -19 59 -39 57 -45 -1 -7 -43 -85 -92 -174 -50 -89 -96 -179 -102 -200 -15
-50 -2 -85 41 -114 81 -55 118 -25 242 197 54 96 100 179 102 185 3 8 116 -44
139 -64 9 -8 -183 -355 -214 -388 -31 -33 -99 -63 -141 -63 -42 0 -135 33
-188 66 -132 83 -163 194 -91 330 88 169 167 304 177 304 5 0 37 -15 70 -34z
m3012 -21 c97 -41 162 -139 171 -255 9 -132 -57 -220 -246 -327 -60 -35 -114
-63 -120 -63 -10 0 -288 478 -281 484 9 8 167 100 214 124 104 53 194 65 262
37z m-607 -251 c17 -44 12 -50 -66 -74 -41 -13 -77 -27 -79 -30 -8 -13 28
-122 41 -127 8 -3 42 4 76 16 34 12 67 21 74 21 14 0 37 -61 27 -71 -5 -3 -39
-17 -78 -29 -38 -13 -72 -24 -74 -26 -1 -1 9 -39 24 -83 l26 -79 100 33 100
34 9 -25 c21 -55 20 -56 -154 -111 -90 -29 -167 -53 -172 -53 -9 0 -178 509
-176 527 1 7 273 100 300 102 7 1 17 -11 22 -25z m-1815 -17 l50 -13 90 -217
c50 -119 92 -217 96 -217 3 0 25 75 49 168 24 92 47 171 51 175 7 9 107 -9
128 -23 8 -4 6 -26 -8 -71 -11 -35 -43 -154 -72 -264 -29 -110 -54 -202 -55
-204 -2 -2 -30 2 -63 9 l-59 12 -93 224 c-52 123 -96 218 -100 211 -3 -6 -25
-84 -49 -172 -23 -88 -46 -164 -50 -168 -11 -12 -121 13 -127 28 -3 10 96 401
128 503 12 36 14 37 84 19z m1377 -133 c5 -41 4 -42 -77 -52 -51 -6 -60 -10
-63 -29 -2 -12 11 -117 27 -233 17 -117 29 -216 26 -220 -3 -5 -36 -12 -73
-16 -37 -4 -69 -7 -71 -8 -3 -1 -19 104 -38 233 -18 129 -34 236 -36 238 -3 2
-37 -1 -76 -8 -40 -6 -74 -9 -75 -7 -7 8 -14 78 -8 79 4 0 90 13 192 29 102
15 204 28 226 29 41 1 42 0 46 -35z m-592 -56 c-1 -62 -28 -530 -32 -533 -1
-1 -36 -1 -75 2 l-73 6 0 31 c0 57 22 501 26 514 2 8 27 12 79 12 l75 0 0 -32z
m-699 -741 c63 -14 148 -31 189 -38 41 -6 79 -16 84 -20 11 -10 -38 -23 -64
-16 -27 7 -47 -18 -30 -38 23 -27 84 -19 133 19 33 25 51 32 71 29 14 -3 26
-9 26 -13 0 -14 -60 -59 -114 -88 -44 -23 -63 -27 -141 -27 -73 0 -98 4 -130
22 -49 26 -116 96 -144 152 -25 47 -26 55 -7 48 7 -3 65 -17 127 -30z m1622
-18 c-36 -65 -91 -122 -145 -151 -61 -32 -192 -33 -261 -1 -51 24 -127 79
-127 93 0 17 55 18 75 1 61 -53 135 -67 159 -29 14 23 4 31 -45 32 -76 2 -56
23 34 36 46 6 136 24 198 40 63 15 120 28 127 29 9 1 3 -17 -15 -50z m-647
-113 c-96 -163 -289 -187 -414 -52 -22 24 -48 58 -56 75 l-16 31 206 -1 c178
0 204 -2 194 -15 -7 -7 -26 -14 -42 -14 -57 0 -87 -37 -56 -68 30 -30 97 4
135 68 16 27 63 45 71 27 2 -4 -8 -27 -22 -51z"/>
<path d="M5035 6833 c-727 -29 -1370 -321 -1891 -855 -98 -101 -189 -209 -301
-359 -229 -305 -379 -467 -556 -599 l-59 -44 7 -70 c25 -255 111 -452 238
-543 94 -68 234 -91 348 -57 194 58 352 202 594 539 229 321 460 555 725 734
626 423 1364 425 1995 6 277 -184 509 -422 770 -790 121 -169 315 -370 415
-428 99 -58 185 -80 283 -75 108 6 178 37 258 117 101 102 173 291 185 486 l5
90 -72 50 c-142 97 -349 323 -539 585 -129 178 -193 255 -329 390 -440 437
-958 703 -1549 795 -86 13 -436 39 -452 33 -3 -1 -36 -3 -75 -5z m57 -203 l29
0 -7 -108 -7 -109 78 -6 c43 -4 91 -7 106 -7 l28 0 3 113 3 112 78 3 77 3 0
-128 c0 -70 -3 -199 -7 -285 l-6 -158 -74 0 -73 0 0 130 0 130 -105 0 -105 0
0 -125 0 -125 -81 0 -81 0 7 278 c4 152 10 281 13 286 2 4 25 6 50 2 25 -3 58
-6 74 -6z m-340 -30 c35 -10 37 -13 31 -43 -8 -45 -12 -47 -61 -36 -123 27
-226 -62 -227 -196 -1 -184 183 -289 314 -180 l28 24 28 -29 29 -30 -23 -24
c-40 -42 -117 -69 -212 -74 -151 -8 -232 36 -291 156 -28 57 -33 77 -33 142 0
64 4 83 29 128 69 123 252 199 388 162z m1165 -71 c81 -28 149 -52 151 -53 2
-3 -18 -68 -24 -75 -1 -1 -39 9 -84 24 -45 15 -83 25 -85 24 -10 -11 -42 -125
-36 -130 3 -4 38 -17 76 -29 39 -13 72 -24 73 -26 9 -7 -21 -74 -32 -74 -7 0
-45 11 -84 24 l-71 24 -25 -76 c-14 -42 -23 -79 -18 -83 4 -3 43 -19 87 -34
44 -16 84 -32 89 -36 4 -4 3 -23 -3 -42 l-12 -35 -172 58 c-117 40 -171 63
-169 72 9 43 177 518 183 518 4 0 74 -23 156 -51z m-1671 -344 c79 -126 144
-233 144 -236 0 -4 -23 -21 -51 -38 l-50 -32 -147 55 c-81 30 -184 68 -230 85
-46 17 -80 25 -76 18 5 -6 50 -79 101 -160 51 -82 93 -150 93 -153 0 -2 -25
-20 -56 -40 -47 -30 -58 -34 -68 -23 -16 17 -275 434 -282 454 -6 14 78 74
103 75 7 0 41 -11 75 -25 135 -52 362 -135 365 -132 1 2 -40 72 -92 155 -52
84 -95 155 -95 160 0 10 103 72 114 69 5 -2 73 -106 152 -232z m2172 126 c58
-30 110 -77 133 -124 11 -21 19 -40 17 -42 -2 -1 -17 -10 -35 -19 l-32 -16
-23 42 c-29 52 -84 83 -121 69 -44 -17 -42 -42 13 -148 60 -118 65 -170 25
-238 -58 -100 -197 -103 -322 -8 -36 27 -93 106 -93 128 0 9 60 45 75 45 2 0
13 -20 23 -43 35 -78 117 -112 162 -67 30 30 25 55 -30 163 -56 111 -63 160
-30 215 32 53 76 74 141 69 30 -3 74 -14 97 -26z m447 -348 c91 -82 165 -153
165 -159 0 -6 -11 -21 -24 -33 l-25 -23 -54 46 c-30 25 -57 46 -60 46 -3 0
-76 -79 -163 -175 l-157 -174 -36 28 c-20 16 -46 40 -58 53 l-22 23 160 178
160 177 -58 54 -58 54 24 26 c14 14 28 26 33 26 5 0 83 -66 173 -147z m-3267
-225 c147 -61 270 -114 274 -117 4 -3 -17 -33 -46 -66 l-54 -60 -75 31 -76 31
-61 -68 -61 -69 37 -66 36 -65 -29 -37 c-17 -20 -34 -36 -39 -36 -5 1 -69 119
-142 264 l-133 262 46 54 c26 30 49 54 52 54 2 0 125 -50 271 -112z m3641
-165 l104 -125 -29 -24 c-16 -13 -32 -23 -36 -24 -3 0 -30 29 -58 65 -30 36
-58 62 -64 58 -24 -14 -96 -78 -96 -84 0 -4 23 -35 52 -69 l52 -63 -28 -23
c-15 -13 -31 -24 -35 -24 -4 0 -30 27 -57 59 -27 33 -52 60 -56 60 -3 1 -34
-22 -67 -51 -53 -44 -59 -53 -48 -67 7 -9 37 -44 66 -79 l54 -63 -23 -24 c-13
-14 -29 -25 -36 -25 -13 0 -234 257 -234 271 0 10 417 359 428 358 4 0 54 -57
111 -126z m-4005 -238 c113 -93 205 -175 205 -180 1 -11 -75 -108 -88 -113 -4
-1 -67 47 -140 108 -74 60 -135 110 -137 110 -2 0 35 -78 83 -173 l86 -174
-19 -26 c-10 -15 -26 -27 -34 -27 -9 0 -90 25 -180 55 -91 30 -168 54 -172 53
-5 -2 53 -54 127 -116 l135 -114 -32 -39 c-18 -22 -38 -37 -45 -35 -18 7 -423
347 -423 355 0 4 21 30 48 58 l47 52 195 -64 c107 -35 196 -63 198 -61 1 2
-38 88 -88 191 -49 103 -90 190 -90 192 0 14 97 122 108 120 7 -1 104 -78 216
-172z m4270 -90 c112 -122 146 -177 146 -232 0 -93 -63 -155 -166 -161 l-63
-4 -36 -112 c-20 -61 -40 -115 -45 -120 -8 -8 -130 81 -130 95 0 3 23 56 51
118 l50 113 -22 24 -22 23 -82 -74 -81 -74 -18 22 c-10 12 -34 38 -53 58 l-34
36 207 187 c115 102 211 186 214 186 4 0 41 -38 84 -85z"/>
<path d="M3410 5590 c23 -44 45 -80 49 -80 10 0 86 79 80 84 -4 3 -65 31 -137
62 l-33 15 41 -81z"/>
<path d="M7392 5101 l-64 -57 36 -32 c48 -42 84 -42 125 -1 39 38 40 76 5 118
-14 17 -29 31 -32 31 -4 -1 -36 -27 -70 -59z"/>
<path d="M4000 4545 l0 -75 1145 0 1145 0 0 75 0 75 -1145 0 -1145 0 0 -75z"/>
<path d="M4912 4340 l-36 -79 -62 -3 -62 -3 56 -85 c62 -95 127 -229 137 -282
6 -32 2 -40 -49 -98 -84 -93 -87 -151 -17 -260 23 -35 41 -75 41 -90 0 -15
-19 -65 -42 -111 -40 -77 -45 -84 -73 -84 -28 0 -31 4 -43 50 -7 28 -15 118
-19 202 l-6 152 53 103 53 102 -24 15 c-75 48 -124 130 -159 266 -11 43 -22
81 -25 84 -3 3 -16 -8 -29 -23 -24 -31 -38 -32 -104 -5 -45 19 -60 7 -104 -85
-47 -96 -66 -107 -144 -82 -31 10 -58 16 -60 13 -2 -2 7 -28 20 -58 14 -30 30
-88 37 -129 6 -41 12 -76 13 -78 2 -1 25 18 52 43 27 25 71 56 98 70 76 38
176 31 176 -13 0 -28 -37 -80 -70 -97 -40 -21 -40 -51 0 -60 58 -13 59 -20 69
-391 8 -313 10 -344 29 -387 26 -59 64 -77 157 -77 l65 0 0 -52 c0 -29 -7
-111 -15 -181 -18 -149 -12 -186 40 -257 58 -80 66 -103 64 -193 -1 -96 5
-115 37 -123 52 -13 177 28 237 77 53 43 50 71 -17 172 -58 89 -83 145 -73
170 3 9 24 25 46 36 40 21 81 64 81 86 0 7 -21 43 -46 79 -61 90 -104 183
-104 226 l0 35 48 -50 c26 -27 126 -132 221 -232 106 -113 180 -183 192 -183
22 0 24 34 9 160 -6 54 -4 102 6 169 8 52 11 104 8 115 -11 35 -36 56 -68 56
-57 0 -62 10 -48 91 9 54 10 75 1 85 -16 20 -30 18 -88 -13 -40 -20 -54 -24
-64 -14 -9 9 -5 26 21 75 18 35 43 73 56 85 l23 21 72 -29 c39 -17 91 -43 114
-58 l42 -29 3 -359 c1 -244 6 -363 13 -372 14 -16 71 -17 87 -1 9 9 12 106 12
375 l0 362 25 37 c28 41 40 92 32 134 -4 16 -2 32 3 35 5 3 13 21 19 40 13 48
-4 116 -45 176 -30 45 -34 59 -34 115 l0 64 95 0 95 0 0 151 c0 121 3 156 16
178 16 27 15 30 -22 94 -21 37 -41 67 -44 67 -3 0 -21 -31 -42 -69 -32 -61
-35 -72 -22 -88 9 -12 13 -47 14 -105 l0 -88 -50 0 -50 0 0 78 c0 59 5 84 20
107 l19 29 -31 56 c-50 89 -49 89 -93 14 -38 -66 -38 -67 -22 -96 12 -21 17
-53 17 -109 l0 -79 -50 0 -50 0 0 79 c0 56 5 88 17 109 16 29 16 30 -22 96
-44 75 -43 75 -93 -14 l-31 -56 19 -29 c17 -26 20 -48 20 -177 l0 -148 90 0
90 0 0 -50 0 -50 -45 0 c-31 0 -73 -13 -136 -41 -49 -22 -97 -38 -105 -35 -27
10 -10 40 38 71 26 17 50 35 52 42 3 7 -26 36 -64 65 -56 42 -69 57 -64 73 3
11 9 70 13 130 9 118 28 176 75 233 l28 32 -66 0 c-46 0 -66 4 -67 13 0 6 -15
44 -33 82 l-32 70 -48 -82 -48 -83 -47 0 -47 0 -43 80 c-23 44 -45 80 -48 80
-2 0 -21 -36 -41 -80z m116 -202 c30 -33 39 -76 17 -84 -27 -11 -49 9 -55 47
-10 61 3 74 38 37z m206 -26 c-8 -44 -20 -62 -44 -62 -39 0 -31 64 11 94 31
21 41 11 33 -32z m-64 -242 c0 -23 -38 -107 -51 -116 -10 -6 -59 96 -59 121 0
11 13 15 55 15 48 0 55 -2 55 -20z m448 -346 c18 -12 22 -25 22 -70 l0 -56
-42 7 c-75 13 -148 60 -148 97 0 10 10 23 23 28 37 15 120 12 145 -6z"/>
<path d="M7723 4085 c-230 -50 -391 -285 -355 -517 47 -308 380 -485 660 -351
88 42 191 151 226 238 33 82 44 195 27 274 -39 181 -195 332 -376 361 -76 12
-105 12 -182 -5z m218 -46 c51 -13 67 -60 32 -91 -30 -27 -153 -60 -223 -60
-142 -2 -202 85 -93 134 84 37 185 43 284 17z m141 -68 c42 -27 96 -91 111
-134 12 -32 -44 -137 -72 -137 -5 0 -18 26 -30 57 -12 32 -35 79 -52 105 -29
48 -34 73 -23 116 8 28 11 28 66 -7z m-495 -31 c8 -22 26 -37 70 -57 53 -26
61 -34 90 -93 45 -91 70 -201 54 -236 -11 -26 -14 -26 -74 -22 -71 6 -102 20
-175 78 -57 44 -112 129 -112 173 0 15 7 42 16 60 15 30 102 127 114 127 3 0
11 -13 17 -30z m423 -70 c104 -146 135 -456 56 -572 -15 -23 -40 -40 -79 -56
-67 -26 -181 -41 -191 -24 -4 6 3 44 16 84 17 59 22 98 22 198 0 117 -2 131
-36 230 -19 58 -33 110 -31 117 3 6 26 16 51 22 26 5 58 14 72 20 14 5 42 10
62 10 30 1 41 -5 58 -29z m236 -189 c13 -100 -25 -237 -85 -311 -31 -38 -40
-16 -30 75 5 44 6 110 3 147 l-7 68 44 56 c38 50 44 54 55 39 7 -10 16 -43 20
-74z m-792 4 c27 -50 118 -132 171 -156 25 -11 73 -25 107 -30 34 -6 66 -13
71 -16 11 -7 3 -112 -13 -165 -16 -55 -57 -100 -84 -92 -188 55 -329 265 -302
447 9 56 24 60 50 12z"/>
<path d="M2340 4071 c-193 -62 -320 -238 -320 -441 1 -280 250 -495 526 -452
106 17 176 54 260 137 56 56 76 84 98 140 101 253 -26 528 -282 614 -78 27
-203 28 -282 2z m289 -45 c61 -24 77 -42 68 -78 -16 -60 -151 -79 -280 -38
-73 23 -107 48 -107 80 0 65 192 87 319 36z m-341 -72 c2 -30 -7 -58 -41 -124
-24 -47 -46 -95 -49 -107 -9 -33 -24 -28 -58 19 -35 48 -38 89 -11 133 35 57
122 129 146 122 6 -2 11 -21 13 -43z m493 -31 c26 -27 53 -59 63 -73 38 -57 5
-152 -78 -227 -66 -59 -118 -84 -187 -90 -53 -5 -58 -4 -74 20 -16 25 -16 30
4 106 11 44 32 106 48 138 25 52 34 61 86 86 44 20 62 35 70 57 6 17 14 30 17
30 3 0 26 -21 51 -47z m-334 -44 c45 -12 84 -28 87 -35 3 -7 -8 -52 -25 -100
-16 -47 -34 -119 -39 -159 -10 -83 2 -231 25 -297 27 -77 24 -81 -47 -76 -70
6 -171 39 -199 64 -51 46 -73 232 -45 369 15 74 57 178 92 233 18 28 46 28
151 1z m-292 -194 c10 -14 14 -65 16 -172 2 -84 0 -155 -3 -158 -12 -12 -69
72 -90 135 -26 74 -30 203 -9 255 l13 30 30 -35 c16 -19 36 -44 43 -55z m739
13 c12 -45 6 -127 -14 -190 -36 -116 -128 -217 -245 -269 -47 -21 -48 -21 -74
-2 -33 25 -62 109 -64 188 l-2 59 68 13 c37 7 88 21 112 32 53 24 144 107 171
156 21 40 39 45 48 13z"/>
<path d="M6503 2011 l-62 -30 98 -171 c55 -94 102 -171 106 -172 3 0 27 13 51
28 89 57 107 132 55 239 -62 129 -135 161 -248 106z"/>
</g>
</svg>
