<?xml version="1.0" standalone="yes"?>
<svg xmlns="http://www.w3.org/2000/svg" width="474" height="316">
<path style="fill:#fefefd; stroke:none;" d="M0 0L0 316L474 316L474 0L0 0z"/>
<path style="fill:#9c943d; stroke:none;" d="M233 38L231 43L231 44L236 44L236 43L234 44L234 43L233 38z"/>
<path style="fill:#443e11; stroke:none;" d="M233 39L233 40L237 39L233 39z"/>
<path style="fill:#9c943d; stroke:none;" d="M235 39L235 40L239 39L235 39z"/>
<path style="fill:#f7d933; stroke:none;" d="M239 38L240 39L239 38M206 39L207 40L206 39z"/>
<path style="fill:#9c943d; stroke:none;" d="M207 39L207 40L213 40L213 39L207 39z"/>
<path style="fill:#443e11; stroke:none;" d="M208 39L208 40L211 40L208 39M238 39L238 40L245 49L230 49L230 45L234 45L234 44L231 42L230 42L229 49L211 40L211 41C216.637 42.4247 220.611 45.2918 224 50L201 55C199.446 44.8719 207.264 51.0131 211 45L205 47L208 40C201.934 43.3401 198.381 48.1022 200 55C180.158 61.7148 165.545 74.4951 152 90C146.93 72.9791 128.296 89.8681 124.934 100C122.903 106.117 127.724 108.971 133 108C132.24 112.702 128.044 113.925 126.693 118.093C123.217 128.817 132.819 140.768 139 148C122.07 148.151 110.923 167.61 121.8 181.907C126.725 188.38 134.359 189.979 142 190C132.129 202.984 135.844 217.411 146.174 229C160.439 245.004 177.186 255.341 196.995 263.015C201.756 264.86 202.558 268.47 206.144 271.581C213.282 277.774 220.468 273.248 227 269C230.001 281.35 243.61 278.892 248 269C253.092 274.641 261.436 277.339 267.772 271.581C270.761 268.865 271.286 264.915 275.058 262.916C296.093 251.763 314.713 244.078 329.622 224C336.88 214.226 341.117 197.177 328 190L328 189C332.741 189.88 337.319 190.473 341.999 188.895C367.355 180.348 355.484 143.668 330 148L330 147C344.658 142.646 346 127.965 346 115C342.034 113.85 340.633 112.061 340 108C345.434 109 349.899 106.113 347.812 100C344.686 90.8454 326.462 73.1127 321 89L319 89C312.022 74.0362 288.863 58.7679 273 55C274.46 48.5509 270.739 43.0297 265 40L265 41L268 47C271.202 47.9755 274.532 52.952 268.941 52.8063C262.21 52.631 254.792 49.8591 248 49C252.325 44.1617 257.547 40.9708 264 40L264 39C256.983 39.6165 250.539 42.7357 247 49C244.761 44.3056 243.136 40.7882 238 39z"/>
<path style="fill:#9c943d; stroke:none;" d="M240 39L241 40L240 39z"/>
<path style="fill:#f7d933; stroke:none;" d="M241 39L242 40L241 39M258 39L259 40L258 39z"/>
<path style="fill:#9c943d; stroke:none;" d="M259 39L260 40L259 39M260 40L260 41L266 40L260 40M205 40L206 41L205 40z"/>
<path style="fill:#f7d933; stroke:none;" d="M215 40L216 41L215 40z"/>
<path style="fill:#443e11; stroke:none;" d="M232.333 40.6667L232.667 41.3333L232.333 40.6667z"/>
<path style="fill:#f7d933; stroke:none;" d="M234 40L236 44L230 49L244 48C242.832 42.2114 239.577 40.5608 234 40z"/>
<path style="fill:#fefefd; stroke:none;" d="M235 40L236 41L235 40z"/>
<path style="fill:#9c943d; stroke:none;" d="M239 40L240 41L239 40M242 40L243 41L242 40M256 40L257 41L256 40z"/>
<path style="fill:#f7d933; stroke:none;" d="M206 47L207 47L212 45C206.935 49.1372 199.245 45.5666 201 54L224 48C219.021 44.326 206.891 35.562 206 47z"/>
<path style="fill:#9c943d; stroke:none;" d="M213 41L214 42L213 41z"/>
<path style="fill:#f7d933; stroke:none;" d="M217 41L218 42L217 41z"/>
<path style="fill:#9c943d; stroke:none;" d="M241 41L242 42L241 41M243 41L244 42L243 41M254 41L255 42L254 41M257 41L258 42L257 41z"/>
<path style="fill:#f7d933; stroke:none;" d="M249 49L272 53L272 47L261 49L268 47C266.254 36.0543 252.532 42.4517 249 49z"/>
<path style="fill:#9c943d; stroke:none;" d="M266 41L267 42L266 41M204 42L205 43L204 42M216 42L217 43L216 42z"/>
<path style="fill:#f7d933; stroke:none;" d="M232 42L233 43L232 42z"/>
<path style="fill:#443e11; stroke:none;" d="M234 42L234 44L236 42L234 42z"/>
<path style="fill:#9c943d; stroke:none;" d="M242 42L243 43L242 42z"/>
<path style="fill:#f7d933; stroke:none;" d="M244 42L245 43L244 42M252 42L253 43L252 42z"/>
<path style="fill:#9c943d; stroke:none;" d="M255 42L256 43L255 42M205 43L205 47L206 47L205 43z"/>
<path style="fill:#f7d933; stroke:none;" d="M220 43L221 44L220 43z"/>
<path style="fill:#9c943d; stroke:none;" d="M229.333 43.6667L229.667 44.3333L229.333 43.6667M244 43L245 44L244 43M251 43L252 44L251 43z"/>
<path style="fill:#f7d933; stroke:none;" d="M269 43L270 44L269 43z"/>
<path style="fill:#9c943d; stroke:none;" d="M219 44L220 45L219 44M221 44L222 45L221 44M243 44L244 45L243 44M250 44L251 45L250 44M252 44L253 45L252 44M269 44L270 45L269 44M201 45L202 46L201 45z"/>
<path style="fill:#fefefd; stroke:none;" d="M207 45L208 46L207 45z"/>
<path style="fill:#9c943d; stroke:none;" d="M209 45L210 46L209 45M211 45L212 46L211 45M220 45L221 46L220 45M222 45L223 46L222 45M230 45L231 46L230 45z"/>
<path style="fill:#f7d933; stroke:none;" d="M245 45L246 46L245 45z"/>
<path style="fill:#9c943d; stroke:none;" d="M251 45L252 46L251 45M268 45L269 46L268 45M270 45L270 46L273 47L270 45z"/>
<path style="fill:#f7d933; stroke:none;" d="M272 45L273 46L272 45M199 46L200 47L199 46z"/>
<path style="fill:#9c943d; stroke:none;" d="M202.667 46.3333L203.333 46.6667L202.667 46.3333M207 46L208 47L207 46M221 46L222 47L221 46M223 46L224 47L223 46z"/>
<path style="fill:#f7d933; stroke:none;" d="M228 46L229 47L228 46z"/>
<path style="fill:#fefefd; stroke:none;" d="M243 46L244 47L243 46z"/>
<path style="fill:#9c943d; stroke:none;" d="M249 46L250 47L249 46z"/>
<path style="fill:#443e11; stroke:none;" d="M262 46L266 49L262 46z"/>
<path style="fill:#9c943d; stroke:none;" d="M264 46L265 47L264 46M204 47L205 48L204 47M224 47L225 48L224 47M228.333 47.6667L228.667 48.3333L228.333 47.6667M244 47L232 48L232 49L244 47M247 47L248 48L247 47z"/>
<path style="fill:#fefefd; stroke:none;" d="M250 47L251 48L250 47z"/>
<path style="fill:#9c943d; stroke:none;" d="M261 47L261 49L263 49L261 47M266 49L269 48L266 49M273 47L274 48L273 47M205 48L206 49L205 48M207.667 48.3333L208.333 48.6667L207.667 48.3333M225 48L226 49L225 48M246 48L247 49L246 48M248 48L249 49L248 48M272 48L272 53L273 53L272 48z"/>
<path style="fill:#f7d933; stroke:none;" d="M198 49L199 50L198 49z"/>
<path style="fill:#9c943d; stroke:none;" d="M222.667 49.3333L223.333 49.6667L222.667 49.3333M251 49L251 50L255 50L251 49M198 50L199 51L198 50M216 50L216 51L219 51L216 50M231 50L231 51L246 51L231 50M247 50L248 51L247 50M258 50L258 51L261 51L258 50z"/>
<path style="fill:#f7d933; stroke:none;" d="M198 51L199 52L198 51z"/>
<path style="fill:#9c943d; stroke:none;" d="M211 51L211 52L214 52L211 51M222 51L222 52L225 52L222 51z"/>
<path style="fill:#f7d933; stroke:none;" d="M192 62C214.642 55.8196 235.237 49.1078 259 54.4252C270.666 57.0356 282.82 67.0732 294 68C299.331 78.498 313.287 86.2513 320.625 96C325.947 103.07 339.543 112.988 341.681 121.09C345.162 134.278 330.375 148.392 318.001 141.647C307.494 135.921 302.193 124.791 294.701 116C281.612 100.643 266.181 89.4808 246 86.081C238.667 84.8456 222.034 83.3577 217 90C244.731 84.2793 267.504 90.2259 287.576 111.17C295.67 119.616 301.304 130.716 310.09 138.381C315.956 143.5 334.387 152.008 337 139C358.37 127.889 329.308 102.376 321.389 93.0394C296.293 63.4505 262.489 45.746 222.961 51.7793C214.318 53.0984 197.479 54.5519 192 62z"/>
<path style="fill:#9c943d; stroke:none;" d="M227 51L228 52L227 51z"/>
<path style="fill:#fefefd; stroke:none;" d="M245 51L246 52L245 51z"/>
<path style="fill:#9c943d; stroke:none;" d="M252 51L252 52L256 52L252 51M263.667 51.3333L264.333 51.6667L263.667 51.3333M200 52L201 53L200 52M207.667 52.3333L208.333 52.6667L207.667 52.3333M216 52L216 53L219 53L216 52M234 52L234 53L243 53L234 52M244 52L245 53L244 52M258 52L258 53L261 53L258 52M267 52L268 53L267 52M199.333 53.6667L199.667 54.3333L199.333 53.6667M203.667 53.3333L204.333 53.6667L203.667 53.3333M211.667 53.3333L212.333 53.6667L211.667 53.3333z"/>
<path style="fill:#fefefd; stroke:none;" d="M215 53L216 54L215 53z"/>
<path style="fill:#9c943d; stroke:none;" d="M222 53L222 54L225 54L222 53z"/>
<path style="fill:#e34a29; stroke:none;" d="M225 53.4252C190.055 58.1819 167.248 76.3397 146.705 103.985C142.746 109.314 135.242 112.673 132.028 118.209C127.304 126.344 134.821 142.576 144 143.849C161.122 146.223 173.734 122.842 183.285 112C200.238 92.7583 224.199 81.1741 250 86.4498C271.181 90.7808 286.994 106.471 299.664 123C306.23 131.565 315.109 146.158 328 143.656C337.096 141.89 344.673 128.925 341.397 120C338.107 111.039 325.035 100.531 318.715 93.0039C295.219 65.0264 262.045 48.3826 225 53.4252z"/>
<path style="fill:#9c943d; stroke:none;" d="M251 53L251 54L255 54L251 53M263.667 53.3333L264.333 53.6667L263.667 53.3333M269 53L269 54L272 54L269 53M273.333 53.6667L273.667 54.3333L273.333 53.6667M201 54L202 55L201 54M207.667 54.3333L208.333 54.6667L207.667 54.3333M217 54L218 55L217 54M259 54L260 55L259 54M267 54L268 55L267 54M198 55L199 56L198 55M204.667 55.3333L205.333 55.6667L204.667 55.3333z"/>
<path style="fill:#fefefd; stroke:none;" d="M207 55L208 56L207 55z"/>
<path style="fill:#9c943d; stroke:none;" d="M212 55L213 56L212 55M262.667 55.3333L263.333 55.6667L262.667 55.3333M270 55L271 56L270 55M275 55L276 56L275 55z"/>
<path style="fill:#f7d933; stroke:none;" d="M276 55L277 56L276 55z"/>
<path style="fill:#9c943d; stroke:none;" d="M195 56L196 57L195 56M201 56L202 57L201 56M208.667 56.3333L209.333 56.6667L208.667 56.3333M273 56L274 57L273 56M278 56L279 57L278 56M193 57L194 58L193 57M198.667 57.3333L199.333 57.6667L198.667 57.3333M205.667 57.3333L206.333 57.6667L205.667 57.3333M269 57L270 58L269 57M275.667 57.3333L276.333 57.6667L275.667 57.3333M280 57L281 58L280 57z"/>
<path style="fill:#f7d933; stroke:none;" d="M190 58L191 59L190 58z"/>
<path style="fill:#9c943d; stroke:none;" d="M195.667 58.3333L196.333 58.6667L195.667 58.3333M231 58L231 59L234 59L231 58M245 58L245 59L248 59L245 58M272 58L273 59L272 58M277.667 58.3333L278.333 58.6667L277.667 58.3333M282 58L283 59L282 58z"/>
<path style="fill:#f7d933; stroke:none;" d="M188 59L189 60L188 59z"/>
<path style="fill:#9c943d; stroke:none;" d="M189 59L190 60L189 59M193.667 59.3333L194.333 59.6667L193.667 59.3333M214 59L215 60L214 59z"/>
<path style="fill:#f7d933; stroke:none;" d="M227 76C223.463 76.5984 219.517 78.5503 216.044 76.8056C206.819 72.1718 213.596 62.9905 221 62L221 59C218.268 59.0585 215.517 59.0743 213.004 60.3179C194.264 69.5915 218.494 93.0153 227 76M230 59L230 79L235 79L235 70L244 70L244 79L249 79L249 59L244 59L244 67L235 67L235 59L230 59z"/>
<path style="fill:#9c943d; stroke:none;" d="M275 59L276 60L275 59M280 59L281 60L280 59M284 59L285 60L284 59z"/>
<path style="fill:#f7d933; stroke:none;" d="M186 60L187 61L186 60z"/>
<path style="fill:#9c943d; stroke:none;" d="M187 60L188 61L187 60M191 60L192 61L191 60M196 60L197 61L196 60M221.333 60.6667L221.667 61.3333L221.333 60.6667M260 60L261 61L260 60z"/>
<path style="fill:#f7d933; stroke:none;" d="M261 60L254 79L267 82L267 81L259 78L261 72L268 74L262 69L264 64L271 65L261 60z"/>
<path style="fill:#9c943d; stroke:none;" d="M263 60L264 61L263 60M277 60L278 61L277 60M282 60L283 61L282 60M286 60L287 61L286 60z"/>
<path style="fill:#f7d933; stroke:none;" d="M184 61L185 62L184 61z"/>
<path style="fill:#9c943d; stroke:none;" d="M185 61L186 62L185 61M189 61L190 62L189 61z"/>
<path style="fill:#f7d933; stroke:none;" d="M190 61C175.679 69.4472 157.275 80.688 151 97L179 70.1551L190 61z"/>
<path style="fill:#fefefd; stroke:none;" d="M191 61L192 62L191 61z"/>
<path style="fill:#9c943d; stroke:none;" d="M194 61L195 62L194 61M210 61L211 62L210 61M266 61L267 62L266 61M279 61L280 62L279 61M284 61L285 62L284 61z"/>
<path style="fill:#f7d933; stroke:none;" d="M288 61L289 62L288 61M182 62L183 63L182 62z"/>
<path style="fill:#9c943d; stroke:none;" d="M183 62L184 63L183 62M187 62L188 63L187 62M191.667 62.3333L192.333 62.6667L191.667 62.3333M209 62L210 63L209 62M216 62L216 63L219 63L216 62M259 62L260 63L259 62M281 62L282 63L281 62M286 62L287 63L286 62M289 62L290 63L289 62M181 63L182 64L181 63M185 63L186 64L185 63M190 63L191 64L190 63M208 63L209 64L208 63M283 63L284 64L283 63M291 63L292 64L291 63M179 64L180 65L179 64M213 64L214 65L213 64M265 64L266 65L265 64M271 64L272 65L271 64M285 64L286 65L285 64M289 64L290 65L289 64z"/>
<path style="fill:#f7d933; stroke:none;" d="M293 64L294 65L293 64z"/>
<path style="fill:#9c943d; stroke:none;" d="M178 65L179 66L178 65M182 65L183 66L182 65M212 65L213 66L212 65M258 65L259 66L258 65M268 65L269 66L268 65M270 65L271 66L270 65M286.667 65.3333L287.333 65.6667L286.667 65.3333M291 65L292 66L291 65M294 65L295 66L294 65M176 66L177 67L176 66M180 66L181 67L180 66M184 66L185 67L184 66M197 66L198 67L197 66z"/>
<path style="fill:#f7d933; stroke:none;" d="M198 66L195 68L201 80L182 76L192 94C197.776 90.6903 192.092 85.403 190 81C196.321 82.4624 202.7 86.7083 209 84L198 66z"/>
<path style="fill:#9c943d; stroke:none;" d="M206 66L207 67L206 66M249 66L250 67L249 66M292 66L293 67L292 66M295 66L296 67L295 66M175 67L176 68L175 67M179 67L180 68L179 67M182 67L183 68L182 67M199 67L200 68L199 67M290 67L291 68L290 67M294 67L295 68L294 67z"/>
<path style="fill:#f7d933; stroke:none;" d="M297 67L298 68L297 67M173 68L174 69L173 68z"/>
<path style="fill:#9c943d; stroke:none;" d="M177 68L178 69L177 68M211 68L212 69L211 68M257 68L258 69L257 68M262 68L263 69L262 68z"/>
<path style="fill:#fefefd; stroke:none;" d="M293 68L294 69L293 68z"/>
<path style="fill:#9c943d; stroke:none;" d="M295 68L296 69L295 68M298 68L299 69L298 68M172 69L173 70L172 69M176 69L177 70L176 69M179 69L180 70L179 69M263 69L264 70L263 69M293 69L294 70L293 69M171 70L172 71L171 70M178 70L179 71L178 70M201 70L202 71L201 70M243 70L244 71L243 70M265 70L266 71L265 70M278 70L279 71L278 70z"/>
<path style="fill:#f7d933; stroke:none;" d="M279 87L269 83C269.978 89.1886 280.332 95.1525 283.381 86.9414C284.895 82.8637 281.958 78.3719 280 75L289 78C288.738 72.1719 279.877 66.5751 276.043 73.2284C273.692 77.3096 277.86 83.0418 279 87z"/>
<path style="fill:#9c943d; stroke:none;" d="M283 70L284 71L283 70M298 70L299 71L298 70M301 70L302 71L301 70z"/>
<path style="fill:#f7d933; stroke:none;" d="M169 71L170 72L169 71z"/>
<path style="fill:#9c943d; stroke:none;" d="M173 71L174 72L173 71M205.333 71.6667L205.667 72.3333L205.333 71.6667M276 71L277 72L276 71M299 71L300 72L299 71M302 71L303 72L302 71M168 72L169 73L168 72M172 72L173 73L172 72M175 72L176 73L175 72M261 72L261 73L264 73L261 72M268 72L269 73L268 72M275 72L276 73L275 72M287 72L288 73L287 72M297 72L298 73L297 72M303 72L304 73L303 72M167 73L168 74L167 73M255 73L256 74L255 73M265 73L266 74L265 73M288 73L289 74L288 73M302 73L303 74L302 73M166 74L167 75L166 74M169 74L170 75L169 74M206 74L205 77L206 74M212 74L213 75L212 74M284 74L285 75L284 74M303 74L304 75L303 74z"/>
<path style="fill:#f7d933; stroke:none;" d="M306 74L307 75L306 74z"/>
<path style="fill:#9c943d; stroke:none;" d="M165 75L166 76L165 75M168 75L169 76L168 75M171 75L172 76L171 75M183 75L184 76L183 75M187.667 75.3333L188.333 75.6667L187.667 75.3333M198 75L199 76L198 75M204 75L205 76L204 75M280 75L281 76L280 75M285 75L286 76L285 75M289 75L290 76L289 75M301 75L302 76L301 75M304 75L305 76L304 75z"/>
<path style="fill:#f7d933; stroke:none;" d="M307 75L308 76L307 75z"/>
<path style="fill:#9c943d; stroke:none;" d="M164 76L165 77L164 76M167 76L168 77L167 76M170 76L171 77L170 76M190.667 76.3333L191.333 76.6667L190.667 76.3333z"/>
<path style="fill:#e34a29; stroke:none;" d="M206.333 76.6667L206.667 77.3333L206.333 76.6667z"/>
<path style="fill:#9c943d; stroke:none;" d="M214 76L215 77L214 76M286 76L287 77L286 76M302 76L303 77L302 76M305 76L306 77L305 76M308 76L309 77L308 76M166 77L167 78L166 77M169 77L170 78L169 77M193.667 77.3333L194.333 77.6667L193.667 77.3333M199 77L200 78L199 77M207 77L208 78L207 77M221 77L222 78L221 77M259 77L260 78L259 77M289 77L290 78L289 77M303 77L304 78L303 77M309 77L310 78L309 77M165 78L166 79L165 78M196.667 78.3333L197.333 78.6667L196.667 78.3333M200 78L199 80L201 80L200 78M206 78L207 79L206 78M208 78L209 79L208 78M260 78L260 79L263 79L260 78z"/>
<path style="fill:#f7d933; stroke:none;" d="M292 78C294.329 87.5028 287.765 89.8792 284 98L288 100C291.956 94.3839 296.771 87.5681 304 91C304.089 85.1579 296.955 80.3076 292 78z"/>
<path style="fill:#9c943d; stroke:none;" d="M304 78L305 79L304 78M307 78L308 79L307 78M310 78L311 79L310 78M161 79L162 80L161 79M164 79L165 80L164 79M225 79L226 80L225 79M254.667 79.3333L255.333 79.6667L254.667 79.3333M263 79L264 80L263 79M282 79L283 80L282 79M305 79L306 80L305 79M308 79L309 80L308 79M311 79L312 80L311 79M160 80L161 81L160 80M183 80L184 81L183 80M276 80L277 81L276 80M296 80L297 81L296 80M306 80L307 81L306 80M312 80L313 81L312 80M142.667 81.3333L143.333 81.6667L142.667 81.3333z"/>
<path style="fill:#f7d933; stroke:none;" d="M146 81L147 82L146 81z"/>
<path style="fill:#9c943d; stroke:none;" d="M159 81L160 82L159 81M162 81L163 82L162 81M192 81L193 82L192 81M213 81L214 82L213 81M221 81L222 82L221 81M260 81L261 82L260 81M293 81L294 82L293 81M297 81L298 82L297 81M313 81L314 82L313 81M326.667 81.3333L327.333 81.6667L326.667 81.3333M329.667 81.3333L330.333 81.6667L329.667 81.3333z"/>
<path style="fill:#f7d933; stroke:none;" d="M140 82L141 83L140 82M148 82L149 83L148 82z"/>
<path style="fill:#9c943d; stroke:none;" d="M158 82L159 83L158 82M161 82L162 83L161 82M190 82L191 83L190 82M195 82L196 83L195 82M262.667 82.3333L263.333 82.6667L262.667 82.3333M298 82L299 83L298 82z"/>
<path style="fill:#f7d933; stroke:none;" d="M314 82L315 83L314 82z"/>
<path style="fill:#9c943d; stroke:none;" d="M324 82L325 83L324 82M331 82L332 83L331 82M143 83L144 84L143 83z"/>
<path style="fill:#f7d933; stroke:none;" d="M146 92L146 93C140.799 96.8277 135.305 102.531 134 109C138.233 106.016 157.216 88.8324 145.946 84.4074C139.692 81.9517 143.771 90.2633 146 92z"/>
<path style="fill:#9c943d; stroke:none;" d="M145 83L146 84L145 83M149 83L150 84L149 83M157 83L158 84L157 83M160 83L161 84L160 83M191.333 83.6667L191.667 84.3333L191.333 83.6667M198 83L199 84L198 83M271 83L272 84L271 83M299 83L300 84L299 83M315 83L316 84L315 83M323 83L324 84L323 83M324 86L328 84L324 86z"/>
<path style="fill:#f7d933; stroke:none;" d="M338 109C336.537 102.29 332.281 97.2581 327 93C328.175 91.6044 333.333 82.515 327.133 84.4961C315.947 88.0711 334.428 106.119 338 109z"/>
<path style="fill:#9c943d; stroke:none;" d="M329 83L330 84L329 83z"/>
<path style="fill:#f7d933; stroke:none;" d="M138 84L139 85L138 84z"/>
<path style="fill:#9c943d; stroke:none;" d="M147 84L148 85L147 84M156 84L157 85L156 84M159 84L160 85L159 84M200.667 84.3333L201.333 84.6667L200.667 84.3333M268 84L269 85L268 84M278 84L279 85L278 84M284.333 84.6667L284.667 85.3333L284.333 84.6667M294 84L295 85L294 84M300 84L301 85L300 84z"/>
<path style="fill:#f7d933; stroke:none;" d="M316 84L317 85L316 84z"/>
<path style="fill:#9c943d; stroke:none;" d="M322 84L323 85L322 84M330 84L331 85L330 84M137 85L138 86L137 85M141.333 85.6667L141.667 86.3333L141.333 85.6667M148 85L149 86L148 85M150 85L151 86L150 85z"/>
<path style="fill:#f7d933; stroke:none;" d="M155 85L156 86L155 85z"/>
<path style="fill:#9c943d; stroke:none;" d="M158 85L159 86L158 85M186 85L187 86L186 85M192 85L193 86L192 85M203 85L204 86L203 85M206 85L207 86L206 85M230 85L230 86L234 86L230 85M242 85L242 86L245 86L242 85M272 85L273 86L272 85M314 85L315 86L314 85z"/>
<path style="fill:#f7d933; stroke:none;" d="M317 85L318 86L317 85z"/>
<path style="fill:#9c943d; stroke:none;" d="M331 85L331 88L332 88L331 85z"/>
<path style="fill:#f7d933; stroke:none;" d="M335 85L336 86L335 85z"/>
<path style="fill:#9c943d; stroke:none;" d="M136 86L137 87L136 86M222.667 86.3333L223.333 86.6667L222.667 86.3333M248 86L248 87L251 87L248 86M273 86L274 87L273 86M278 86L279 87L278 86M312 86L313 87L312 86M315 86L316 87L315 86M321 86L322 87L321 86z"/>
<path style="fill:#fefefd; stroke:none;" d="M324 86L325 87L324 86z"/>
<path style="fill:#9c943d; stroke:none;" d="M336 86L337 87L336 86z"/>
<path style="fill:#f7d933; stroke:none;" d="M135 87L136 88L135 87z"/>
<path style="fill:#9c943d; stroke:none;" d="M127 99L140 88C134.759 87.8891 129.813 95.0066 127 99M149 87L150 88L149 87M151 87L152 88L151 87M154 87L155 88L154 87M159 87L160 88L159 87M193 87L194 88L193 87M219 87L220 88L219 87M229 87L229 88L236 88L229 87M238 87L238 88L245 88L238 87M253.667 87.3333L254.333 87.6667L253.667 87.3333M275 87L276 88L275 87M316 87L318 89L316 87M323 87L324 88L323 87z"/>
<path style="fill:#f7d933; stroke:none;" d="M333 87L330 93L330 94C332.761 96.7632 339.454 106.74 343.735 106.079C347.027 105.57 346.381 101.031 345.221 99.0394C342.551 94.4516 337.187 90.1872 333 87z"/>
<path style="fill:#9c943d; stroke:none;" d="M334 87L336 89L334 87z"/>
<path style="fill:#f7d933; stroke:none;" d="M337 87L338 88L337 87z"/>
<path style="fill:#9c943d; stroke:none;" d="M134 88L135 89L134 88z"/>
<path style="fill:#fefefd; stroke:none;" d="M138 88L139 89L138 88z"/>
<path style="fill:#f7d933; stroke:none;" d="M139 88C134.45 91.4667 119.379 103.47 131 107C135.024 101.288 144.667 95.4093 139 88z"/>
<path style="fill:#9c943d; stroke:none;" d="M141 88L142 89L141 88M153 88L154 89L153 88M168 88L167 90L168 88z"/>
<path style="fill:#f7d933; stroke:none;" d="M175 110L177 110L178 109L179 98L187 100L189 96C185.168 93.9571 172.519 85.9177 168.619 89.6466C164.511 93.5744 172.827 106.196 175 110z"/>
<path style="fill:#9c943d; stroke:none;" d="M188 88L189 89L188 88M194 88L195 89L194 88M216 88L217 89L216 88M223.667 88.3333L224.333 88.6667L223.667 88.3333M248 88L248 89L251 89L248 88M257 88L258 89L257 88M283 88L284 89L283 88M300 88L301 89L300 88M305 88L306 89L305 88M314 88L315 89L314 88z"/>
<path style="fill:#fefefd; stroke:none;" d="M316 88L317 89L316 88z"/>
<path style="fill:#9c943d; stroke:none;" d="M319 88L320 89L319 88z"/>
<path style="fill:#fefefd; stroke:none;" d="M334 88L335 89L334 88z"/>
<path style="fill:#9c943d; stroke:none;" d="M338 88L339 89L338 88M133 89L134 90L133 89M140 89L141 90L140 89M142 89L143 90L142 89M152 89L153 90L152 89M155 89L156 90L155 89M157 89L158 90L157 89M174 89L175 90L174 89M213 89L214 90L213 89z"/>
<path style="fill:#f7d933; stroke:none;" d="M151 98C145.84 100.781 131.848 112.801 129.603 118.184C125.67 127.618 133.999 144.257 144 145.785C160.147 148.254 170.423 130.347 179.272 120.001C183.353 115.228 188.365 110.737 191 105C196.739 104.036 212.433 93.8649 216 89C198.232 93.2204 184.383 109.527 173.25 123C167.113 130.427 161.528 139.606 152 143.03C140.345 147.219 123.556 129.126 131.607 118.465C137.41 110.781 146.388 107.193 151 98z"/>
<path style="fill:#fefefd; stroke:none;" d="M216 89L217 90L216 89z"/>
<path style="fill:#9c943d; stroke:none;" d="M219.667 89.3333L220.333 89.6667L219.667 89.3333M228 89L228 90L233 90L228 89z"/>
<path style="fill:#f7d933; stroke:none;" d="M233 89L233 90L240 90L233 89z"/>
<path style="fill:#9c943d; stroke:none;" d="M240 89L240 90L245 90L240 89M253.667 89.3333L254.333 89.6667L253.667 89.3333M259.667 89.3333L260.333 89.6667L259.667 89.3333M272 89L273 90L272 89M282 89L283 90L282 89M301 89L302 90L301 89M315 89L316 90L315 89M318 89L319 90L318 89z"/>
<path style="fill:#fefefd; stroke:none;" d="M323 89L324 90L323 89z"/>
<path style="fill:#9c943d; stroke:none;" d="M332 89L333 90L332 89M336 89L337 90L336 89z"/>
<path style="fill:#f7d933; stroke:none;" d="M339 89L340 90L339 89z"/>
<path style="fill:#9c943d; stroke:none;" d="M132 90L133 91L132 90M143 90L144 91L143 90M154 90L155 91L154 90M216 90L217 91L216 90M223.667 90.3333L224.333 90.6667L223.667 90.3333z"/>
<path style="fill:#f7d933; stroke:none;" d="M225 90L226 91L225 90z"/>
<path style="fill:#fefefd; stroke:none;" d="M203 99L203 100L270 100C251.814 82.9738 222.649 89.8281 203 99z"/>
<path style="fill:#f7d933; stroke:none;" d="M247 90L248 91L247 90z"/>
<path style="fill:#9c943d; stroke:none;" d="M248 90L248 91L251 91L248 90M256.667 90.3333L257.333 90.6667L256.667 90.3333M262 90L263 91L262 90M274 90L275 91L274 90M281 90L282 91L281 90M289 90L290 91L289 90M304 90L305 91L304 90M316 90L317 91L316 90M329 90L330 91L329 90M337 90L338 91L337 90M340 90L341 91L340 90M131 91L132 92L131 91M141 91L142 92L141 91M144 91L145 92L144 91M149 91L150 92L149 91M153 91L154 92L153 91M166 91L167 92L166 91M190 91L191 92L190 91M213.667 91.3333L214.333 91.6667L213.667 91.3333M219.667 91.3333L220.333 91.6667L219.667 91.3333z"/>
<path style="fill:#f7d933; stroke:none;" d="M252 91L253 92L252 91z"/>
<path style="fill:#9c943d; stroke:none;" d="M253 91L254 92L253 91M259 91L260 92L259 91M264 91L265 92L264 91M278 91L279 92L278 91M288 91L289 92L288 91M317 91L318 92L317 91M323 91L324 92L323 91M328 91L329 92L328 91M331 91L332 92L331 91M338 91L339 92L338 91z"/>
<path style="fill:#f7d933; stroke:none;" d="M341 91L342 92L341 91z"/>
<path style="fill:#9c943d; stroke:none;" d="M130 92L131 93L130 92M142 92L141 95L142 92M145 92L146 93L145 92M155 92L156 93L155 92M211 92L212 93L211 92M216 92L217 93L216 92z"/>
<path style="fill:#f7d933; stroke:none;" d="M217 92L218 93L217 92z"/>
<path style="fill:#9c943d; stroke:none;" d="M256 92L257 93L256 92M262 92L263 93L262 92M266 92L267 93L266 92M287 92L288 93L287 92M327 92L328 93L327 92M330 92L331 93L330 92M339 92L340 93L339 92z"/>
<path style="fill:#f7d933; stroke:none;" d="M342 92L343 93L342 92z"/>
<path style="fill:#9c943d; stroke:none;" d="M129 93L130 94L129 93z"/>
<path style="fill:#fefefd; stroke:none;" d="M141 93L142 94L141 93z"/>
<path style="fill:#9c943d; stroke:none;" d="M148 93L149 94L148 93M152 93L153 94L152 93M183.667 93.3333L184.333 93.6667L183.667 93.3333M209 93L210 94L209 93M213.667 93.3333L214.333 93.6667L213.667 93.3333z"/>
<path style="fill:#f7d933; stroke:none;" d="M258 93L259 94L258 93z"/>
<path style="fill:#9c943d; stroke:none;" d="M259 93L260 94L259 93M264 93L265 94L264 93M268 93L269 94L268 93M286 93L287 94L286 93M293 93L294 94L293 93z"/>
<path style="fill:#f7d933; stroke:none;" d="M304 116C304.216 106.168 300.138 107.418 311 107L310 98L311 98L316 103L311 93C298.15 96.4971 292.343 107.719 304 116z"/>
<path style="fill:#9c943d; stroke:none;" d="M321 93L322 94L321 93M324 93L325 94L324 93M340 93L342 95L340 93M343 93L344 94L343 93M128 94L129 95L128 94M147 94L148 95L147 94M151 94L152 95L151 94M171 94L172 97L173 97L173 94L171 94M186 94L187 95L186 94M203 94L204 95L203 94M207 94L208 95L207 94M211 94L212 95L211 94M261 94L262 95L261 94M266 94L267 95L266 94M285 94L286 95L285 94M292 94L293 95L292 94M307 94L308 95L307 94M311 94L312 95L311 94M322 94L323 95L322 94z"/>
<path style="fill:#fefefd; stroke:none;" d="M326 94L327 95L326 94M340 94L341 95L340 94z"/>
<path style="fill:#9c943d; stroke:none;" d="M344 94L345 95L344 94z"/>
<path style="fill:#f7d933; stroke:none;" d="M127 95L128 96L127 95z"/>
<path style="fill:#e34a29; stroke:none;" d="M173 95L174 100L177 96L173 95z"/>
<path style="fill:#9c943d; stroke:none;" d="M174 95L175 96L174 95M205 95L206 96L205 95M209 95L210 96L209 95M263 95L264 96L263 95M268 95L269 96L268 95M271 95L272 96L271 95M291 95L292 96L291 95M312 95L313 96L312 95M320 95L321 96L320 95M323 95L324 96L323 95M342 95L343 96L342 95z"/>
<path style="fill:#f7d933; stroke:none;" d="M345 95L346 96L345 95M126 96L127 97L126 96z"/>
<path style="fill:#9c943d; stroke:none;" d="M149 97L149 98L152 98L149 97M200 96L201 97L200 96M204 96L205 97L204 96M207 96L208 97L207 96M265 96L266 97L265 96M269 96L270 97L269 96M273 96L274 97L273 96M290 96L291 97L290 96M313 96L314 97L313 96z"/>
<path style="fill:#fefefd; stroke:none;" d="M327 96L328 97L327 96z"/>
<path style="fill:#9c943d; stroke:none;" d="M330 96L331 97L330 96M343 96L344 97L343 96M125 97L126 98L125 97M145 97L146 98L145 97z"/>
<path style="fill:#fefefd; stroke:none;" d="M150 97L151 98L150 97z"/>
<path style="fill:#9c943d; stroke:none;" d="M188 97L189 98L188 97M206 97L207 98L206 97M267 97L268 98L267 97M271 97L272 98L271 97M289 97L290 98L289 97M314 97L315 98L314 97M327 97L328 98L327 97M331 97L332 98L331 97M333 97L334 98L333 97M344 97L345 98L344 97z"/>
<path style="fill:#f7d933; stroke:none;" d="M347 97L348 98L347 97z"/>
<path style="fill:#9c943d; stroke:none;" d="M140 98L141 99L140 98M144 98L145 99L144 98M169 98L170 99L169 98M173 98L174 99L173 98M176 98L177 99L176 98M179 98L180 99L179 98M181 98L182 99L181 98M187 98L188 99L187 98M197 98L198 99L197 98M201 98L202 99L201 98M204 98L205 99L204 98z"/>
<path style="fill:#f7d933; stroke:none;" d="M268 98L269 99L268 98z"/>
<path style="fill:#9c943d; stroke:none;" d="M269 98L270 99L269 98M273 98L274 99L273 98M276 98L277 99L276 98M285 98L286 99L285 98M288 98L289 99L288 98M310 98L311 99L310 98M325 98L326 99L325 98M328 98L329 99L328 98M332 98L333 99L332 98M334 98L335 99L334 98M345 98L346 99L345 98M347 98L348 99L347 98M124.333 99.6667L124.667 100.333L124.333 99.6667M139 99L140 100L139 99M143 99L144 100L143 99M175 99L176 100L175 99M184 99L185 100L184 99M202 99C205.407 102.899 215.099 101 220 101L272 101L272 100C250.031 100 223.368 104.087 202 99z"/>
<path style="fill:#f7d933; stroke:none;" d="M270 99L271 100L270 99z"/>
<path style="fill:#9c943d; stroke:none;" d="M274 99L275 100L274 99M277 99L278 100L277 99M286 99L287 100L286 99M323 99L324 100L323 99M326 99L327 100L326 99M335 99L336 100L335 99M348 99L348 102L349 102L348 99M126 100L127 101L126 100M136 100L137 101L136 100M138 100L139 101L138 100M147 100L148 101L147 100M174 100L175 101L174 100M194 100L195 101L194 100M198 100L199 101L198 100M275 100L276 101L275 100M308 100L309 101L308 100M336 100L337 101L336 100M346 100L347 101L346 100M135 101L136 102L135 101M146 101L147 102L146 101z"/>
<path style="fill:#f7d933; stroke:none;" d="M162 119C154.823 116.933 149.782 111.575 143 117L143 118C147.529 122.529 153.033 130.984 160 130L152 120L166 124L162 110L171 118C177.486 110.905 152.393 91.1469 159.333 111.998C160.128 114.39 160.98 116.698 162 119z"/>
<path style="fill:#9c943d; stroke:none;" d="M177 101L178 102L177 101M193 101L194 102L193 101M197 101L198 102L197 101M307.333 101.667L307.667 102.333L307.333 101.667M337 101L338 102L337 101M134 102L135 103L134 102M171 102L172 103L171 102z"/>
<path style="fill:#fefefd; stroke:none;" d="M194 102L195 103L194 102z"/>
<path style="fill:#9c943d; stroke:none;" d="M199 102L199 103L275 103L251 102L199 102M278 102L279 103L278 102M281 102L282 103L281 102M298 102L299 103L298 102M325 102L326 103L325 102M328 102L329 103L328 102M331 102L332 103L331 102M338 102L339 103L338 102M133 103L134 104L133 103M140 103L141 104L140 103M163 103L164 104L163 103M191 103L192 104L191 103M197 103L196 105L197 103z"/>
<path style="fill:#f7d933; stroke:none;" d="M195 107L279 107L279 130L262 131L261 130L262 126C258.454 126.36 256.521 126.485 255 123C260.702 121.766 260.292 118.076 260 113L255 110L254 110L249 113L249 123L254 126L241 126L247 122L247 113L241 110L240 110C236.46 114.191 232.164 120.574 240 123L239 127L228 127L227 122C232.794 122.885 231.997 117.409 232 113L227 110L226 110L220 113C220.003 117.461 219.256 122.583 225 122L226 126L215 127L214 126L219 115L210 124L213 125L213 126L206 124L206 130L194 130L194 108L192 108L192 176C192 183.253 189.468 196.449 193.028 202.896C195 206.467 199.781 208.568 203 210.86C211.38 216.827 224.807 230.738 235 232.356C239.305 233.04 243.138 229.403 245 226C250.823 225.272 256.261 220.233 261 216.859C266.559 212.9 276.344 208.492 279.972 202.624C282.615 198.349 281 189.867 281 185L281 142C281 133.849 284.778 111.712 278.556 105.709C274.091 101.402 265.671 103 260 103L214 103C207.847 103 198.734 101.082 195 107z"/>
<path style="fill:#9c943d; stroke:none;" d="M276 103L277 104L276 103M279 103L280 104L279 103M282 103L283 104L282 103M308 103L309 104L308 103M329 103L330 104L329 103M332 103L333 104L332 103M346.333 103.667L346.667 104.333L346.333 103.667M124.333 104.667L124.667 105.333L124.333 104.667M132 104L133 105L132 104M139 104L140 105L139 104M144 104L145 105L144 104M190 104L191 105L190 104M277 104L278 105L277 104M303 104L304 105L303 104M309 104L310 105L309 104M327 104L328 105L327 104M330 104L331 105L330 104M333 104L334 105L333 104M337 104L338 109L339 109L337 104M348.333 104.667L348.667 105.333L348.333 104.667M126 105L127 106L126 105M131 105L132 106L131 105M134 105L135 106L134 105M138 105L139 106L138 105M143 105L144 106L143 105M145 105L146 106L145 105M189 105L190 106L189 105z"/>
<path style="fill:#fefefd; stroke:none;" d="M191 105L192 106L191 105z"/>
<path style="fill:#9c943d; stroke:none;" d="M278 105L279 106L278 105M334 105L335 106L334 105z"/>
<path style="fill:#fefefd; stroke:none;" d="M337.333 105.667L337.667 106.333L337.333 105.667z"/>
<path style="fill:#9c943d; stroke:none;" d="M127 106L128 107L127 106M137 106L138 107L137 106M142 106L143 107L142 106M157 106L158 107L157 106M166 106L167 107L166 106M177 106L178 107L177 106M188 106L189 107L188 106M191 106L192 107L191 106M194 106L193 108L195 108L194 106z"/>
<path style="fill:#f7d933; stroke:none;" d="M125 107L126 108L125 107z"/>
<path style="fill:#9c943d; stroke:none;" d="M136 107L137 108L136 107M141 107L142 108L141 107M144 107L145 108L144 107M187 107L188 108L187 107M190 107L191 108L190 107z"/>
<path style="fill:#e34a29; stroke:none;" d="M194 108C194.388 113.713 192.05 122.492 194.603 127.682C197.616 133.804 205.432 128.935 206 124L226 110L227 110L232 112C231.996 117.004 232.465 121.341 227 123L227 126L240 126L240 123C231.488 120.416 236.72 114.395 240 110L241 110C244.386 113.935 251.174 112.78 255 110C259.547 114.072 264.668 121.458 255 123L255 126L263 127L262 130L278 130L278 107L222 107L194 108z"/>
<path style="fill:#9c943d; stroke:none;" d="M278 107L279 108L278 107M280 107L281 108L280 107M300.333 107.667L300.667 108.333L300.333 107.667M307 107L308 108L307 107M310 107L311 108L310 107z"/>
<path style="fill:#f7d933; stroke:none;" d="M308 124L309 124L315 119C315.528 124.969 312.508 128.707 318 133L320 124C333.763 125.749 327.234 106.289 319 108.346C315.623 109.189 312.288 113.526 310.063 116C307.473 118.88 306.656 120.458 308 124M126 108L127 109L126 108z"/>
<path style="fill:#9c943d; stroke:none;" d="M127 108L128 109L127 108M131 108L132 113L133 113L131 108M135 108L136 109L135 108M140 108L141 109L140 108M143 108L144 109L143 108M168 108L169 109L168 108M186 108L187 109L186 108M189 108L190 109L189 108M296 108L297 109L296 108M340.667 108.333L341.333 108.667L340.667 108.333M345 108L346 109L345 108z"/>
<path style="fill:#f7d933; stroke:none;" d="M130 109L131 110L130 109z"/>
<path style="fill:#9c943d; stroke:none;" d="M139 109L140 110L139 109M158.333 109.667L158.667 110.333L158.333 109.667M169 109L170 110L169 109M174 109L175 110L174 109M185 109L186 110L185 109M188 109L189 110L188 109M191.333 109.667L191.667 110.333L191.333 109.667M282.333 109.667L282.667 110.333L282.333 109.667M286 109L287 110L286 109M288 109L289 110L288 109M323 109L324 110L323 109M337 109L338 110L337 109z"/>
<path style="fill:#f7d933; stroke:none;" d="M340.333 109.667L340.667 110.333L340.333 109.667M342.667 109.333L343.333 109.667L342.667 109.333z"/>
<path style="fill:#9c943d; stroke:none;" d="M162 110L162 111L163 113L164 113L162 110M170 110L171 111L170 110M175 110L176 111L175 110M184 110L185 111L184 110M187 110L188 111L187 110M194 110L195 111L194 110M278.333 110.667L278.667 111.333L278.333 110.667M280 110L281 111L280 110z"/>
<path style="fill:#fefefd; stroke:none;" d="M283 110L283 176C283 183.419 285.464 196.294 281.972 202.961C277.29 211.898 260.459 219.78 252 225L252 226C268.349 222.828 282.453 215.292 294.996 204.421C303.588 196.974 308.874 184.92 322 187C312.12 172.49 310.265 160.409 326 149L326 148C304.982 146.91 297.548 121.282 283 110z"/>
<path style="fill:#9c943d; stroke:none;" d="M284 110L285 111L284 110M287 110L288 111L287 110M289 110L290 111L289 110M324 110L325 111L324 110z"/>
<path style="fill:#e34a29; stroke:none;" d="M163 111L164 112L163 111z"/>
<path style="fill:#9c943d; stroke:none;" d="M171 111L172 112L171 111M183 111L184 112L183 111M186 111L187 112L186 111M189 111L190 112L189 111M255 111L256 112L255 111M285 111L286 112L285 111M290 111L291 112L290 111M135 112L136 113L135 112M159 112L160 113L159 112M172 112L173 113L172 112M182 112L183 113L182 112z"/>
<path style="fill:#fefefd; stroke:none;" d="M188 112C178.138 124.955 165.329 145.403 148 148L148 149C163.594 160.593 161.991 172.327 152 187C163.852 187.616 170.574 199.715 179.004 206.75C190.977 216.743 204.726 223.036 220 226L220 225C212.099 219.626 193.117 211.025 189.603 201.96C187.354 196.156 189 187.17 189 181L189 135C189 128.772 191.319 117.141 188 112z"/>
<path style="fill:#f7d933; stroke:none;" d="M189 112L190 113L189 112z"/>
<path style="fill:#9c943d; stroke:none;" d="M191 112L191 203L192 203L192 140L191 112M221 112L221 113L225 113L221 112M228 112L228 113L232 113L228 112M236 112L236 113L239 113L236 112M242 112L242 113L247 113L242 112M249 112L249 113L253 113L249 112M256 112L256 113L260 113L256 112M286 112L288 114L286 112M291 112L292 113L291 112M313 112L314 113L313 112z"/>
<path style="fill:#e34a29; stroke:none;" d="M321 112C313.592 121.077 327.245 119.468 321 112z"/>
<path style="fill:#9c943d; stroke:none;" d="M337 112L338 113L337 112M340 112L341 113L340 112M130 113L131 114L130 113M134 113L135 114L134 113M137 113L138 114L137 113M148 113L149 114L148 113M166 113L167 114L166 113M173 113L174 114L173 113M184 113L185 114L184 113M235 113L236 114L235 113M247 113L244 122L244 123C249.52 121.795 248.996 117.919 249 113L247 113M280 113L281 114L280 113M282 113L283 114L282 113z"/>
<path style="fill:#f7d933; stroke:none;" d="M286 113L287 114L286 113z"/>
<path style="fill:#9c943d; stroke:none;" d="M292 113L293 114L292 113M312 113L313 114L312 113M341 113L342 114L341 113M129 114L130 115L129 114M136 114L137 115L136 114M145 114L146 115L145 114M151 114L152 115L151 114M167 114L168 115L167 114M174.333 114.667L174.667 115.333L174.333 114.667z"/>
<path style="fill:#f7d933; stroke:none;" d="M186 114L187 115L186 114z"/>
<path style="fill:#9c943d; stroke:none;" d="M218 114L218 117L219 117L220 114L218 114M260 114L260 118L261 118L260 114M311 114L312 115L311 114M318 114L319 115L318 114M323.333 114.667L323.667 115.333L323.333 114.667M327 114L328 115L327 114M342.667 114.333L343.333 114.667L342.667 114.333z"/>
<path style="fill:#f7d933; stroke:none;" d="M344 114L345 115L344 114M126 115L127 116L126 115z"/>
<path style="fill:#9c943d; stroke:none;" d="M127 115L128 116L127 115M131 115L132 116L131 115M134 115L135 116L134 115M144 115L145 116L144 115M153 115L154 116L153 115M160 115L161 116L160 115M168 115L169 116L168 115z"/>
<path style="fill:#f7d933; stroke:none;" d="M185 115L186 116L185 115M189 115L190 116L189 115M288 115L289 116L288 115z"/>
<path style="fill:#9c943d; stroke:none;" d="M291 115L292 116L291 115M310 115L311 116L310 115z"/>
<path style="fill:#fefefd; stroke:none;" d="M339 115L340 116L339 115z"/>
<path style="fill:#f7d933; stroke:none;" d="M346 115L347 116L346 115z"/>
<path style="fill:#9c943d; stroke:none;" d="M126 116L127 117L126 116M143 116L144 117L143 116M155 116L156 117L155 116M164 116L165 117L164 116M169 116L170 117L169 116M173 116L174 117L173 116M184 116L185 117L184 116M189 116L190 117L189 116z"/>
<path style="fill:#e34a29; stroke:none;" d="M219 116L214 126L226 126L226 123C221.289 122.249 220.841 119.933 219 116z"/>
<path style="fill:#9c943d; stroke:none;" d="M280.333 116.667L280.667 117.333L280.333 116.667M282.333 116.667L282.667 117.333L282.333 116.667M289 116L290 117L289 116M292 116L293 117L292 116M328 116L329 117L328 116M342 116L342 117L344 126L345 126C344.997 122.013 345.598 118.332 342 116M346 116L347 117L346 116M128 117L128 123L129 123L128 117M157 117L158 118L157 117M183 117L184 118L183 117z"/>
<path style="fill:#f7d933; stroke:none;" d="M189 117L189 200L190 200L190 143L189 117z"/>
<path style="fill:#9c943d; stroke:none;" d="M235 117L235 120L236 120L235 117M290 117L291 118L290 117M293 117L294 118L293 117M323 117L324 118L323 117z"/>
<path style="fill:#fefefd; stroke:none;" d="M343 117L344 118L343 117z"/>
<path style="fill:#f7d933; stroke:none;" d="M346 117L347 118L346 117z"/>
<path style="fill:#9c943d; stroke:none;" d="M130 118L130 125L131 125L130 118M159 118L159 119L162 119L159 118M165 118L166 119L165 118M182 118L183 119L182 118M217 118L218 119L217 118M291 118L292 119L291 118M294 118L295 119L294 118M307 118L308 119L307 118M341 118L342 119L341 118M346 118L347 119L346 118M151 119L152 120L151 119M176 119L177 120L176 119M179 119L180 120L179 119M181 119L182 120L181 119M260 119L260 122L261 122L260 119M292 119L293 120L292 119M306 119L307 120L306 119M313.667 119.333L314.333 119.667L313.667 119.333z"/>
<path style="fill:#f7d933; stroke:none;" d="M346 119L347 120L346 119z"/>
<path style="fill:#9c943d; stroke:none;" d="M152 120L152 121L155 121L152 120M178 120L179 121L178 120M211 120L212 121L211 120M216.333 120.667L216.667 121.333L216.333 120.667M295 120L296 121L295 120M312 120L313 121L312 120M315 120L315 123L316 123L315 120M328 120L329 121L328 120M346.333 120.667L346.667 121.333L346.333 120.667M126 121L126 125L127 125L126 121M157 121L158 122L157 121M166.333 121.667L166.667 122.333L166.333 121.667M174 121L175 122L174 121M235 121L236 122L235 121M293 121L294 122L293 121M296 121L297 122L296 121M311 121L312 122L311 121M153 122L154 123L153 122M158 122L159 123L158 122M173 122L174 123L173 122z"/>
<path style="fill:#f7d933; stroke:none;" d="M179 122L180 123L179 122z"/>
<path style="fill:#9c943d; stroke:none;" d="M221 122L222 123L221 122M224 122L225 123L224 122M227 122L228 123L227 122M236 122L237 123L236 122z"/>
<path style="fill:#e34a29; stroke:none;" d="M241 123L241 126L254 126L254 123L241 123z"/>
<path style="fill:#9c943d; stroke:none;" d="M250 122L251 123L250 122M258.667 122.333L259.333 122.667L258.667 122.333M294 122L295 123L294 122M297 122L298 123L297 122M299 122L300 123L299 122M310 122L311 123L310 122M327 122L328 123L327 122z"/>
<path style="fill:#f7d933; stroke:none;" d="M346.333 122.667L346.667 123.333L346.333 122.667z"/>
<path style="fill:#9c943d; stroke:none;" d="M161 123L162 124L161 123M172 123L173 124L172 123z"/>
<path style="fill:#f7d933; stroke:none;" d="M178 123L179 124L178 123z"/>
<path style="fill:#9c943d; stroke:none;" d="M209 123L213 126L213 125L209 123M295 123L296 124L295 123M300 123L301 124L300 123M309 123L310 124L309 123M155 124L156 125L155 124M175 124L173 127L177 126L175 124M177 124L178 125L177 124M320.667 124.333L321.333 124.667L320.667 124.333M171 125L172 126L171 125z"/>
<path style="fill:#443e11; stroke:none;" d="M175 125C168.019 132.602 162.806 140.714 153 145L153 146C160.802 144.588 175.216 133.632 175 125z"/>
<path style="fill:#f7d933; stroke:none;" d="M296 125L297 126L296 125z"/>
<path style="fill:#9c943d; stroke:none;" d="M299 125L300 126L299 125M314 125L315 126L314 125M129 126L129 129L130 129L129 126M157 126L158 127L157 126M170 126L171 127L170 126M215 126L216 127L215 126M218 126L219 127L218 126M222 126L223 127L222 126M228 126L229 127L228 126M230 126L231 127L230 126M238 126L239 127L238 126M246 126L247 127L246 126M248 126L249 127L248 126M257 126L258 127L257 126M259 126L260 127L259 126M297 126L298 127L297 126M300 126L301 127L300 126M158 127L159 128L158 127M262 127L263 128L262 127M298 127L299 128L298 127M127.333 128.667L127.667 129.333L127.333 128.667M131 128L132 129L131 128M159 128L160 129L159 128z"/>
<path style="fill:#f7d933; stroke:none;" d="M174 128L175 129L174 128z"/>
<path style="fill:#9c943d; stroke:none;" d="M205.333 128.667L205.667 129.333L205.333 128.667M301 128L302 129L301 128M341 128L342 129L341 128M345.333 128.667L345.667 129.333L345.333 128.667z"/>
<path style="fill:#f7d933; stroke:none;" d="M173 129L174 130L173 129z"/>
<path style="fill:#9c943d; stroke:none;" d="M194 129L195 130L194 129M261 129L262 130L261 129M278 129L279 130L278 129M299 129L300 130L299 129M302 129L303 130L302 129M304 129L305 130L304 129M313 129L314 130L313 129M318 129L319 130L318 129M343.333 129.667L343.667 130.333L343.333 129.667M167 130L168 131L167 130M170 130L171 131L170 130M172 130L173 131L172 130M197 130L198 131L197 130M200 130L201 131L200 130M202 130L203 131L202 130M262 130L263 131L262 130M274 130L275 131L274 130M300 130L301 131L300 130M305 130L306 131L305 130M314 130L315 131L314 130M130 131L131 132L130 131M171 131L172 132L171 131M301 131L302 132L301 131M303 131L304 132L303 131M340 131L341 132L340 131M128 132L129 133L128 132M132 132L133 133L132 132M194 132L194 138L195 138L194 132z"/>
<path style="fill:#e34a29; stroke:none;" d="M195 132L195 138L278 138C277.296 128.958 264.782 132 258 132L195 132z"/>
<path style="fill:#9c943d; stroke:none;" d="M277 132L278 133L277 132z"/>
<path style="fill:#f7d933; stroke:none;" d="M301 132L302 133L301 132z"/>
<path style="fill:#9c943d; stroke:none;" d="M304 132L305 133L304 132M316 132L317 133L316 132M344 132L345 133L344 132z"/>
<path style="fill:#f7d933; stroke:none;" d="M128 133L129 134L128 133z"/>
<path style="fill:#9c943d; stroke:none;" d="M170 133L171 134L170 133M302 133L303 134L302 133M305 133L306 134L305 133M342 133L343 134L342 133M131 134L132 135L131 134M133 134L134 135L133 134M167 134L168 135L167 134M169 134L170 135L169 134M278 134L279 135L278 134M303 134L304 135L303 134M306 134L307 135L306 134M308 134L309 135L308 134M129 135L130 136L129 135M163 135L164 136L163 135M166 135L167 136L166 135M168 135L169 136L168 135M309 135L310 136L309 135M341 135L342 136L341 135z"/>
<path style="fill:#f7d933; stroke:none;" d="M343 135L344 136L343 135z"/>
<path style="fill:#9c943d; stroke:none;" d="M132 136L133 137L132 136M162 136L163 137L162 136M165 136L166 137L165 136M278 136L279 137L278 136M130 137L131 138L130 137M161 137L162 138L161 137M164 137L165 138L164 137M202 137L203 138L202 137M311 137L312 138L311 137M337 137L338 138L337 137z"/>
<path style="fill:#f7d933; stroke:none;" d="M342 137L343 138L342 137z"/>
<path style="fill:#9c943d; stroke:none;" d="M133 138L134 139L133 138M135 138L136 139L135 138M163 138L164 139L163 138M310 138L311 139L310 138M336 138L337 139L336 138M339 138L340 139L339 138M341 138L342 139L341 138M131 139L132 140L131 139M162 139L163 140L162 139z"/>
<path style="fill:#f7d933; stroke:none;" d="M165 139L166 140L165 139z"/>
<path style="fill:#9c943d; stroke:none;" d="M229 139L228 141L229 139M239 139L240 140L239 139M311 139L312 140L311 139z"/>
<path style="fill:#fefefd; stroke:none;" d="M337 139L338 140L337 139z"/>
<path style="fill:#9c943d; stroke:none;" d="M338 139L339 140L338 139M132 140L133 141L132 140M137 140L138 141L137 140M157 140L158 141L157 140z"/>
<path style="fill:#e34a29; stroke:none;" d="M229 140L222 144L227.802 157L225.12 166L225 182L223 182L223.509 160.17L218 147L211 147L203 154L204 160L215 157L213 164C221.65 172.471 207.931 195.063 225 196C224.577 205.86 226.3 211.543 228.22 220.98C229.2 225.796 234.306 226.462 237.378 222.581C241.469 217.413 233.029 212.78 239 207L234 193L251 209L251 192L248 192L248 186L242 187C244.123 180.847 251.446 178.889 254.397 186.105C257.433 193.53 253.727 203.166 256 211L257 211L258.133 187.039L261.306 174L258.901 164.188L264 162C265.571 156.687 266.345 150.091 264 145L258 157L257 145L256 145L251 157C251 152.654 251.873 147.736 248 145C246.979 152.157 246.058 161.706 255 162L243 168L245 144L240 140L238 140C235.168 144.559 232.671 142.822 229 140z"/>
<path style="fill:#9c943d; stroke:none;" d="M312 140L313 141L312 140M315 140L316 141L315 140M334 140L335 141L334 140z"/>
<path style="fill:#f7d933; stroke:none;" d="M340 140L341 141L340 140z"/>
<path style="fill:#9c943d; stroke:none;" d="M138 141L139 142L138 141M155 141L156 142L155 141M159 141L160 142L159 141M162 141L163 142L162 141M240 141L241 142L240 141M310 141L311 142L310 141M313 141L314 142L313 141M333 141L334 142L333 141M339 141L340 142L339 141M133 142L134 143L133 142M136 142L137 143L136 142M139 142L140 143L139 142M153 142L154 143L153 142M158 142L159 143L158 142M161 142L162 143L161 142M311 142L312 143L311 142M315 142L316 143L315 142M319 142L320 143L319 142M335 142L336 143L335 142M338 142L339 143L338 142M134 143L135 144L134 143M137 143L138 144L137 143M150.667 143.333L151.333 143.667L150.667 143.333M156 143L157 144L156 143M241 143L242 144L241 143z"/>
<path style="fill:#f7d933; stroke:none;" d="M312 143L313 144L312 143z"/>
<path style="fill:#9c943d; stroke:none;" d="M317 143L318 144L317 143M329 143L330 144L329 143M334 143L335 144L334 143z"/>
<path style="fill:#f7d933; stroke:none;" d="M337 143L338 144L337 143M135 144L136 145L135 144z"/>
<path style="fill:#9c943d; stroke:none;" d="M139 144L140 145L139 144M154 144L155 145L154 144M158 144L159 145L158 144M245.333 144.667L245.667 145.333L245.333 144.667M249 144L250 145L249 144M256 144L257 145L256 144M263 144L264 145L263 144M314 144L315 145L314 144M318.667 144.333L319.333 144.667L318.667 144.333M332 144L333 145L332 144z"/>
<path style="fill:#f7d933; stroke:none;" d="M336 144L337 145L336 144M136 145L137 146L136 145z"/>
<path style="fill:#9c943d; stroke:none;" d="M141 145L142 146L141 145M151.667 145.333L152.333 145.667L151.667 145.333M156 145L157 146L156 145M255 145L256 146L255 145M257 145L258 146L257 145M264 145L265 146L264 145M316 145L317 146L316 145M321.667 145.333L322.333 145.667L321.667 145.333M330 145L331 146L330 145M334 145L335 146L334 145M138 146L134 147L134 148L138 146M144.667 146.333L145.333 146.667L144.667 146.333M153.667 146.333L154.333 146.667L153.667 146.333M211 146L212 147L211 146M217 146L218 147L217 146M250 146L251 147L250 146M262 146L263 147L262 146M318 146L319 147L318 146M332 146L330 147L330 148L332 146M150.667 147.333L151.333 147.667L150.667 147.333M210 147L211 148L210 147M213 147L214 148L213 147M215 147L216 148L215 147M218 147L219 148L218 147M244 147L245 148L244 147M247 147L248 148L247 147M258 147L258 150L259 150L258 147M265 147L266 148L265 147M320.667 147.333L321.333 147.667L320.667 147.333M335 147L336 148L335 147M338.667 147.333L339.333 147.667L338.667 147.333z"/>
<path style="fill:#f7d933; stroke:none;" d="M130 148L131 149L130 148z"/>
<path style="fill:#9c943d; stroke:none;" d="M131 148L132 149L131 148M146 148L147 149L146 148z"/>
<path style="fill:#f7d933; stroke:none;" d="M147 148L148 149L147 148z"/>
<path style="fill:#9c943d; stroke:none;" d="M251.333 148.667L251.667 149.333L251.333 148.667M261.333 148.667L261.667 149.333L261.333 148.667z"/>
<path style="fill:#f7d933; stroke:none;" d="M326 148L327 149L326 148z"/>
<path style="fill:#9c943d; stroke:none;" d="M327.667 148.333L328.333 148.667L327.667 148.333M342 148L343 149L342 148M129 149L130 150L129 149M134.667 149.333L135.333 149.667L134.667 149.333z"/>
<path style="fill:#f7d933; stroke:none;" d="M147 185C156.45 184.14 159.192 171.925 157.66 164C155.391 152.263 141.509 146.234 131.039 150.965C127.831 152.415 124.582 154.939 122.565 157.843C120.393 160.97 119.179 165.203 119.181 169C119.185 180.067 137.792 197.095 147 185z"/>
<path style="fill:#9c943d; stroke:none;" d="M142.667 149.333L143.333 149.667L142.667 149.333M148 149L149 150L148 149z"/>
<path style="fill:#f7d933; stroke:none;" d="M231 149L233 152L231 149M238 149L237 152L238 149z"/>
<path style="fill:#9c943d; stroke:none;" d="M325 149L326 150L325 149M330.667 149.333L331.333 149.667L330.667 149.333z"/>
<path style="fill:#f7d933; stroke:none;" d="M332 149.468C306.289 154.203 314.409 193.183 340 187.61C363.911 182.402 355.642 145.115 332 149.468z"/>
<path style="fill:#9c943d; stroke:none;" d="M339 149L340 150L339 149M344.667 149.333L345.333 149.667L344.667 149.333z"/>
<path style="fill:#f7d933; stroke:none;" d="M126 150L125 152L126 150z"/>
<path style="fill:#9c943d; stroke:none;" d="M127 150L128 151L127 150M131 150L132 151L131 150M146 150L147 151L146 150M150 150L151 151L150 150M209 150L210 151L209 150M232 150L233 151L232 150M237 150L238 151L237 150M247 150L248 151L247 150M254 150L255 151L254 150z"/>
<path style="fill:#f7d933; stroke:none;" d="M323 150L324 151L323 150z"/>
<path style="fill:#9c943d; stroke:none;" d="M327 150L328 151L327 150M342 150L343 151L342 150M346 150L347 151L346 150M126 151L127 152L126 151M129 151L130 152L129 151M136 151L136 152L141 152L136 151M148 151L149 152L148 151M151 151L152 152L151 151M219 151L220 152L219 151M225 151L226 152L225 151M242 151L243 152L242 151M322 151L323 152L322 151M325 151L326 152L325 151M332 151L332 152L339 152L332 151M344 151L345 152L344 151z"/>
<path style="fill:#f7d933; stroke:none;" d="M348 151L349 152L348 151z"/>
<path style="fill:#9c943d; stroke:none;" d="M124 152L125 153L124 152M127 152L128 153L127 152M132 152L133 153L132 152z"/>
<path style="fill:#e34a29; stroke:none;" d="M133 152.653C113.001 158.925 123.083 191.176 143 185.2C165.33 178.499 155.036 145.741 133 152.653z"/>
<path style="fill:#9c943d; stroke:none;" d="M144 152L145 153L144 152M202 152L202 155L204 154L204 153L202 152M328 152L329 153L328 152z"/>
<path style="fill:#e34a29; stroke:none;" d="M329.001 152.653C308.52 159.105 319.765 191.13 340.039 185.175C361.965 178.735 350.679 145.823 329.001 152.653z"/>
<path style="fill:#9c943d; stroke:none;" d="M340.667 152.333L341.333 152.667L340.667 152.333M346 152L347 153L346 152M349 152L350 153L349 152M123 153L124 154L123 153M126 153L125 155L126 153M130 153L131 154L130 153M136 153L136 154L143 154L136 153M146.667 153.333L147.333 153.667L146.667 153.333z"/>
<path style="fill:#fefefd; stroke:none;" d="M149 153L150 154L149 153z"/>
<path style="fill:#9c943d; stroke:none;" d="M151 153L152 154L151 153M226 153L227 154L226 153z"/>
<path style="fill:#f7d933; stroke:none;" d="M319 153L320 154L319 153z"/>
<path style="fill:#9c943d; stroke:none;" d="M322 153L323 154L322 153M332 153L332 154L340 154L332 153M343 153L344 154L343 153z"/>
<path style="fill:#f7d933; stroke:none;" d="M350 153L351 154L350 153z"/>
<path style="fill:#9c943d; stroke:none;" d="M122 154L123 155L122 154z"/>
<path style="fill:#fefefd; stroke:none;" d="M126 154L127 155L126 154z"/>
<path style="fill:#f7d933; stroke:none;" d="M132 155L135 157L130 160L131 156C127.555 158.625 126.044 160.664 127 165L129 160L130 160C127.467 171.081 125.064 183.308 140 184C137.952 175.041 138.185 168.803 141 160L135 159L135 158L145 158L145 159C140.182 161.786 140.043 166.856 140 172L145 171L145 172C138.059 173.874 139.793 178.148 141 184C150.428 181.2 153.973 174.316 154 165L147 170C151.143 165.337 154.173 157.709 145 158L145 157L147 156C142.159 153.67 137.137 153.482 132 155z"/>
<path style="fill:#9c943d; stroke:none;" d="M144 154L145 155L144 154M152 154L154 156L152 154z"/>
<path style="fill:#f7d933; stroke:none;" d="M155 154L156 155L155 154z"/>
<path style="fill:#9c943d; stroke:none;" d="M220 154L221 155L220 154M247 154L247 161L248 161L247 154M321 154L322 155L321 154M329 154L330 155L329 154z"/>
<path style="fill:#f7d933; stroke:none;" d="M327 156L339 158L339 159L334 159L334 164L333 164C329.931 153.792 317.862 159.715 327 170L320 165C320.027 174.707 323.523 180.688 333 184C334.516 176.647 335.097 173.246 327 171L327 170L334 172L335 168L336 168L334 184C349.1 183.308 346.312 171.208 344 160L345 160L347 165C347.896 160.951 346.63 159.116 344 156L339 158L339 157L342 155C336.863 153.482 331.841 153.67 327 156z"/>
<path style="fill:#9c943d; stroke:none;" d="M351 154L352 155L351 154M127 155L128 156L127 155M146 155L147 156L146 155z"/>
<path style="fill:#fefefd; stroke:none;" d="M152 155L153 156L152 155z"/>
<path style="fill:#9c943d; stroke:none;" d="M227 155L228 156L227 155M317 156L317 157L320 157L317 156M320 155L321 156L320 155M327 155L328 156L327 155z"/>
<path style="fill:#fefefd; stroke:none;" d="M348 155L349 156L348 155z"/>
<path style="fill:#f7d933; stroke:none;" d="M352 155L353 156L352 155z"/>
<path style="fill:#9c943d; stroke:none;" d="M126 156L127 157L126 156M132 156L135 158L132 156M147 156L148 157L147 156M154 156L155 157L154 156M156 156L157 157L156 156M251 156L251 157L254 157L251 156M258 156L258 157L261 157L258 156z"/>
<path style="fill:#443e11; stroke:none;" d="M318 156C312.836 164.385 311.951 176.082 320 183L315.275 168L318 156z"/>
<path style="fill:#9c943d; stroke:none;" d="M339 158L342 158L341 156L339 158M347 156L349 159L347 156M350 156L351 157L350 156M120 157L121 158L120 157M122 157L123 158L122 157M125 157L126 158L125 157M128 157L129 158L128 157M145 157L146 158L145 157z"/>
<path style="fill:#e34a29; stroke:none;" d="M146.667 157.333L147.333 157.667L146.667 157.333z"/>
<path style="fill:#9c943d; stroke:none;" d="M149 157L150 158L149 157M203 157L204 158L203 157M214 157L215 158L214 157M222 157L223 158L222 157M228 157L229 158L228 157M242 157L242 160L243 160L242 157M326 157L326 158L333 164L334 164L332 160L332 159L339 159L339 158L326 157M345 157L346 158L345 157M351 157L352 158L351 157M353 157L354 158L353 157z"/>
<path style="fill:#f7d933; stroke:none;" d="M119 158L120 159L119 158z"/>
<path style="fill:#fefefd; stroke:none;" d="M122 158L123 159L122 158z"/>
<path style="fill:#9c943d; stroke:none;" d="M127 158L128 159L127 158M130 158L130 160L132 158L130 158M135 158L135 159L141 160C137.812 167.409 136.81 175.441 140 183L141 183C139.888 177.515 139.232 174.359 145 172L145 171L140 172C140.112 166.733 140.921 162.563 145 159L135 158M150 158L151 159L150 158M152 158L153 159L152 158M155 158L156 159L155 158M208 158L209 159L208 158z"/>
<path style="fill:#f7d933; stroke:none;" d="M233 158L236 162L237 158L233 158z"/>
<path style="fill:#9c943d; stroke:none;" d="M237 158L238 159L237 158M316 158L317 159L316 158z"/>
<path style="fill:#fefefd; stroke:none;" d="M319 158L320 159L319 158z"/>
<path style="fill:#9c943d; stroke:none;" d="M321 158L322 159L321 158M323 158L324 159L323 158M343.333 158.667L343.667 159.333L343.333 158.667M346 158L347 159L346 158M354.333 158.667L354.667 159.333L354.333 158.667M119 159L120 160L119 159M126 159L127 160L126 159M153 159L154 160L153 159M156 159L157 160L156 159z"/>
<path style="fill:#f7d933; stroke:none;" d="M158 159L159 160L158 159z"/>
<path style="fill:#9c943d; stroke:none;" d="M207 159L208 160L207 159M224.333 159.667L224.667 160.333L224.333 159.667z"/>
<path style="fill:#f7d933; stroke:none;" d="M315 159L316 160L315 159z"/>
<path style="fill:#9c943d; stroke:none;" d="M317 159L318 160L317 159M320 159L321 160L320 159M322 159L323 160L322 159z"/>
<path style="fill:#e34a29; stroke:none;" d="M332.667 159.333L333.333 159.667L332.667 159.333z"/>
<path style="fill:#9c943d; stroke:none;" d="M347 159L348 160L347 159M352 159L353 160L352 159M123 160L124 161L123 160M129 160L127 165L126 162L125 162L127 176L128 176L129 160M204 160L204 162L206 160L204 160M214 160L215 161L214 160M236 160L237 161L236 160M344 160L346 177L347 177L350 163L346 165L344 160M348.333 160.667L348.667 161.333L348.333 160.667M350 160L351 161L350 160M118 161L119 162L118 161M120 161L121 162L120 161M152 161L147 170L154 165L152 161M227 161L228 162L227 161M234 161L235 162L234 161M248 161L249 162L248 161M259 161L259 162L262 162L259 161M264 161L265 162L264 161M353 161L354 162L353 161M355 161L356 162L355 161M122 162L123 163L122 162M157 162L158 163L157 162M159.333 162.667L159.667 163.333L159.333 162.667M213 162L214 163L213 162M223 162L224 163L223 162M226 162L227 163L226 162M245 162L246 163L245 162M254 162L255 163L254 162M314.333 162.667L314.667 163.333L314.333 162.667M316 162L317 163L316 162M321 162L322 163L321 162M119 163L119 166L120 166L119 163M155 163L156 164L155 163M212 163L213 164L212 163M225 163L226 164L225 163M246.333 163.667L246.667 164.333L246.333 163.667M318 163L319 164L318 163z"/>
<path style="fill:#f7d933; stroke:none;" d="M117 164L118 165L117 164M124 164L126 177L127 177C127 172.111 127.686 167.61 124 164z"/>
<path style="fill:#9c943d; stroke:none;" d="M213.667 164.333L214.333 164.667L213.667 164.333M320 164L320 165L327 170L320 164M334 164L334 168L335 168L334 164z"/>
<path style="fill:#f7d933; stroke:none;" d="M349 164L347 178L348 178L349 164z"/>
<path style="fill:#9c943d; stroke:none;" d="M354.333 164.667L354.667 165.333L354.333 164.667M356 164L356 173L357 173L356 164M117 165L117 173L118 173L117 165M158 165L158 172L159 172L158 165M251 165L252 166L251 165M315 165L315 172L316 172L315 165z"/>
<path style="fill:#f7d933; stroke:none;" d="M160 166L161 167L160 166z"/>
<path style="fill:#9c943d; stroke:none;" d="M221 166L222 167L221 166M224 166L225 167L224 166M248 166L249 167L248 166M258 166L259 167L258 166z"/>
<path style="fill:#f7d933; stroke:none;" d="M313 166L314 167L313 166z"/>
<path style="fill:#9c943d; stroke:none;" d="M352 166L352 171L353 171L352 166M121 167L121 171L122 171L121 167M160 167L160 171L161 171L160 167M313 167L313 171L314 171L313 167M350 167L350 171L351 171L350 167M335 168L334 172L327 170L327 171C333.771 173.699 334.396 176.116 333 183L334 183L335 168M225 169L226 170L225 169M145.667 170.333L146.333 170.667L145.667 170.333M221.333 170.667L221.667 171.333L221.333 170.667z"/>
<path style="fill:#f7d933; stroke:none;" d="M160 171L161 172L160 171z"/>
<path style="fill:#9c943d; stroke:none;" d="M261 171L262 172L261 171z"/>
<path style="fill:#f7d933; stroke:none;" d="M313 171L314 172L313 171z"/>
<path style="fill:#e34a29; stroke:none;" d="M335 171L336 172L335 171z"/>
<path style="fill:#9c943d; stroke:none;" d="M119.333 172.667L119.667 173.333L119.333 172.667M227 172L228 173L227 172M354.333 172.667L354.667 173.333L354.333 172.667M153 173L154 174L153 173M155 173L156 174L155 173M318 173L319 174L318 173M320 173L321 174L320 173M122 174L123 175L122 174M124 174L125 175L124 174M157.333 174.667L157.667 175.333L157.333 174.667M159 174L160 175L159 174M261 174L262 175L261 174M314 174L315 175L314 174M316.333 174.667L316.667 175.333L316.333 174.667M349 174L350 175L349 174M351 174L352 175L351 174M118 175L119 176L118 175M152.333 175.667L152.667 176.333L152.333 175.667z"/>
<path style="fill:#f7d933; stroke:none;" d="M159 175L160 176L159 175M314 175L315 176L314 175z"/>
<path style="fill:#9c943d; stroke:none;" d="M355 175L356 176L355 175M120 176L121 177L120 176M123 176L124 177L123 176M125 176L126 177L125 176M348 176L349 177L348 176M353 176L354 177L353 176z"/>
<path style="fill:#f7d933; stroke:none;" d="M355 176L356 177L355 176z"/>
<path style="fill:#9c943d; stroke:none;" d="M151 177L152 178L151 177M153 177L154 178L153 177M156 177L157 178L156 177M158 177L159 178L158 177M260 177L261 178L260 177M315 177L316 178L315 177M317 177L318 178L317 177M119 178L120 179L119 178M121 178L122 179L121 178M124 178L125 179L124 178M150 178L149 180L151 180L150 178M152.333 178.667L152.667 179.333L152.333 178.667M226 178L227 179L226 178M323 178L327 182L323 178M349 178L350 179L349 178M352 178L353 179L352 178M354 178L355 179L354 178M122 179L123 180L122 179M125 179L126 180L125 179M155 179L156 180L155 179M157 179L158 180L157 179M316 179L317 180L316 179M318 179L319 180L318 179M321 179L322 180L321 179z"/>
<path style="fill:#f7d933; stroke:none;" d="M120 180L121 181L120 180z"/>
<path style="fill:#9c943d; stroke:none;" d="M126 180L127 181L126 180M148 180L149 181L148 180M151 180L152 181L151 180M222 180L223 181L222 180M319 180L320 181L319 180M322 180L323 181L322 180M353 180L354 181L353 180M121 181L122 182L121 181M123 181L124 182L123 181M127 181L128 182L127 181M130 181L131 182L130 181M147 181L148 182L147 181M150 181L151 182L150 181M153 181L154 182L153 181M156 181L157 182L156 181M249 181L250 182L249 181M260 181L261 182L260 181M317 181L318 182L317 181M323 181L324 182L323 181M350 181L351 182L350 181M352 181L353 182L352 181M124 182L125 183L124 182M131 182L132 183L131 182M145 182L146 183L145 182M148 182L149 183L148 182M155 182L156 183L155 182M243 182L244 183L243 182M318 182L319 183L318 182M320 182L321 183L320 182M324 182L325 183L324 182M328 182L329 183L328 182M345 182L346 183L345 182M349 182L350 183L349 182M125 183L126 184L125 183M129 183L130 184L129 183M133.667 183.333L134.333 183.667L133.667 183.333M143 183L144 184L143 183M147 183L148 184L147 183M154 183L155 184L154 183M253 183L254 184L253 183M319 183L320 184L319 183M330.667 183.333L331.333 183.667L330.667 183.333M339 183L340 184L339 183M348 183L349 184L348 183M131.667 184.333L132.333 184.667L131.667 184.333M145 184L146 185L145 184M150 184L151 185L150 184M153 184L154 185L153 184M242 184L243 185L242 184M320 184L321 185L320 184M323 184L324 185L323 184M342 184L343 185L342 184M349 184L350 185L349 184M125 185L126 186L125 185M128 185L129 186L128 185M134 185L135 186L134 185M142.667 185.333L143.333 185.667L142.667 185.333z"/>
<path style="fill:#fefefd; stroke:none;" d="M147 185L148 186L147 185z"/>
<path style="fill:#9c943d; stroke:none;" d="M149 185L150 186L149 185z"/>
<path style="fill:#f7d933; stroke:none;" d="M152 185L153 186L152 185z"/>
<path style="fill:#9c943d; stroke:none;" d="M245 185L245 186L248 186L245 185M321 185L322 186L321 185M324 185L325 186L324 185M329 185L329 186L333 186L329 185M335.333 185.667L335.667 186.333L335.333 185.667M339 185L340 186L339 185M345 185L346 186L345 185M126 186L127 187L126 186M130 186L131 187L130 186M147 186L148 187L147 186M151 186L152 187L151 186M242.667 186.333L243.333 186.667L242.667 186.333z"/>
<path style="fill:#f7d933; stroke:none;" d="M317 186L317 187L321 187L317 186M322 186L323 187L322 186z"/>
<path style="fill:#9c943d; stroke:none;" d="M326 186L327 187L326 186M343 186L344 187L343 186M347 186L348 187L347 186M128 187L129 188L128 187M132 187L133 188L132 187M144.667 187.333L145.333 187.667L144.667 187.333M155.667 187.333L156.333 187.667L155.667 187.333z"/>
<path style="fill:#f7d933; stroke:none;" d="M157 187L158 188L157 187z"/>
<path style="fill:#9c943d; stroke:none;" d="M312.667 187.333L313.333 187.667L312.667 187.333M323.667 187.333L324.333 187.667L323.667 187.333M329 187L330 188L329 187M341 187L342 188L341 187M345 187L346 188L345 187z"/>
<path style="fill:#f7d933; stroke:none;" d="M129 188L130 189L129 188z"/>
<path style="fill:#9c943d; stroke:none;" d="M130 188L131 189L130 188M135 188L135 189L142 189L135 188M159 188L160 189L159 188M310 188L311 189L310 188M317 188L317 189L320 189L317 188M332 188L332 189L339 189L332 188M343 188L344 189L343 188z"/>
<path style="fill:#f7d933; stroke:none;" d="M344 188L345 189L344 188M132 189L133 190L132 189z"/>
<path style="fill:#9c943d; stroke:none;" d="M133 189L134 190L133 189M147.667 189.333L148.333 189.667L147.667 189.333z"/>
<path style="fill:#f7d933; stroke:none;" d="M180 252L180 251C165.235 243.14 147.911 229.957 141.352 214C137.656 205.01 140.935 190.52 153 191.152C161.605 191.603 168.245 202.577 174 207.91C184.304 217.459 197.283 224.827 211 228C205.61 222.77 196.548 220.939 190 217.125C178.043 210.161 161.544 182.962 146.015 190.573C137.3 194.844 136.351 206.852 139.468 215C144.934 229.286 164.636 249.037 180 252z"/>
<path style="fill:#9c943d; stroke:none;" d="M156 189L157 190L156 189M161 189L162 190L161 189z"/>
<path style="fill:#f7d933; stroke:none;" d="M308 189L309 190L308 189z"/>
<path style="fill:#9c943d; stroke:none;" d="M312.667 189.333L313.333 189.667L312.667 189.333z"/>
<path style="fill:#f7d933; stroke:none;" d="M294 210L276 219.996L256 228L256 229C271.838 226.865 286.267 217.473 297.985 207.13C303.16 202.563 308.178 193.312 315.004 191.434C336.332 185.566 333.391 212.75 325.331 223C319.391 230.555 309.168 236.446 305 245C313.036 239.974 327.73 228.936 329 219C338.418 213.554 335.569 196.084 326.985 191.093C313.814 183.433 299.1 199.063 294 210z"/>
<path style="fill:#fefefd; stroke:none;" d="M320 189L321 190L320 189z"/>
<path style="fill:#9c943d; stroke:none;" d="M323 189L324 190L323 189M328 189L329 191L330 191L331 189L328 189M340 189L341 190L340 189z"/>
<path style="fill:#f7d933; stroke:none;" d="M341 189L342 190L341 189M138 190L139 191L138 190z"/>
<path style="fill:#9c943d; stroke:none;" d="M139 190L140 191L139 190z"/>
<path style="fill:#f7d933; stroke:none;" d="M141 190L142 191L141 190z"/>
<path style="fill:#9c943d; stroke:none;" d="M145 190L146 191L145 190M158 190L159 191L158 190M162 190L163 191L162 190M307 190L308 191L307 190M310 190L311 191L310 190M326 190L327 191L326 190z"/>
<path style="fill:#f7d933; stroke:none;" d="M333 190L333 191L337 191L333 190z"/>
<path style="fill:#9c943d; stroke:none;" d="M148 191L149 192L148 191z"/>
<path style="fill:#e34a29; stroke:none;" d="M149.001 191.576C140.917 193.808 139.117 202.761 140.326 210C142.594 223.586 156.511 235.296 167 242.985C197.85 265.599 237.869 270.48 274 259.112C294.998 252.506 315.442 238.28 327.783 220C334.724 209.72 334.784 190.509 318 191.059C308.057 191.386 300.155 205.589 292.83 211.444C278.46 222.932 263.066 228.154 245.285 231.269C242.086 231.829 239.268 234.593 236 234.455C232.997 234.329 230.379 231.968 227.424 231.375C209.741 227.827 193.263 223.796 179 211.7C171.205 205.089 160.848 188.307 149.001 191.576z"/>
<path style="fill:#9c943d; stroke:none;" d="M155.667 191.333L156.333 191.667L155.667 191.333M160 191L161 192L160 191M163 191L164 192L163 191M309 191L310 192L309 191M313 191L314 192L313 191M323 191L324 192L323 191M328 191L329 192L328 191M158 192L159 193L158 192M216 192L217 193L216 192M308 192L309 193L308 192M311 192L312 193L311 192M325 192L326 193L325 192M329 192L330 193L329 192z"/>
<path style="fill:#f7d933; stroke:none;" d="M332 192L333 193L332 192z"/>
<path style="fill:#9c943d; stroke:none;" d="M139 193L140 194L139 193M144 193L145 194L144 193M234.333 193.667L234.667 194.333L234.333 193.667M251 193L252 194L251 193M305 193L306 194L305 193M310 193L311 194L310 193M327 193L328 194L327 193M330 193L331 194L330 193M138 194L139 195L138 194M143 194L144 195L143 194M166 194L167 195L166 194M217 194L218 195L217 194M304 194L305 195L304 194M309 194L310 195L309 194M328 194L329 195L328 194M331 194L332 195L331 194M333 194L334 195L333 194M140 195L141 196L140 195M142 195L143 196L142 195M162 195L163 196L162 195z"/>
<path style="fill:#fefefd; stroke:none;" d="M164 195L165 196L164 195z"/>
<path style="fill:#9c943d; stroke:none;" d="M167 195L168 196L167 195M219 195L220 196L219 195z"/>
<path style="fill:#f7d933; stroke:none;" d="M303 195L304 196L303 195z"/>
<path style="fill:#9c943d; stroke:none;" d="M329 195L330 196L329 195M137 196L138 197L137 196M139 196L140 197L139 196M168 196L169 197L168 196z"/>
<path style="fill:#f7d933; stroke:none;" d="M302 196L303 197L302 196z"/>
<path style="fill:#9c943d; stroke:none;" d="M305 196L306 197L305 196M332 196L333 197L332 196M334 196L335 197L334 196M141 197L142 198L141 197M169 197L170 198L169 197z"/>
<path style="fill:#f7d933; stroke:none;" d="M301 197L302 198L301 197z"/>
<path style="fill:#9c943d; stroke:none;" d="M304 197L305 198L304 197M307 197L308 198L307 197M136.333 198.667L136.667 199.333L136.333 198.667M167 198L168 199L167 198M170 198L171 199L170 198M235 198L236 199L235 198M250 198L251 199L250 198M303 198L304 199L303 198M306 198L307 199L306 198M333 198L334 199L333 198M335 198L336 199L335 198M138 199L139 200L138 199M168 199L169 200L168 199M240 199L241 200L240 199M302 199L303 200L302 199M305 199L306 200L305 199M169 200L170 201L169 200z"/>
<path style="fill:#f7d933; stroke:none;" d="M172 200L173 201L172 200z"/>
<path style="fill:#9c943d; stroke:none;" d="M189 200L190 201L189 200M224.333 200.667L224.667 201.333L224.333 200.667M241 200L242 201L241 200M282 200L282 204L283 204L282 200M299 200L300 201L299 200M301 200L302 201L301 200M304 200L305 201L304 200M167 201L168 202L167 201M170 201L171 202L170 201z"/>
<path style="fill:#f7d933; stroke:none;" d="M189 201L189 204L190 204L189 201z"/>
<path style="fill:#9c943d; stroke:none;" d="M242 201L243 202L242 201M303 201L304 202L303 201M334 201L334 204L335 204L334 201z"/>
<path style="fill:#f7d933; stroke:none;" d="M336 201L337 202L336 201z"/>
<path style="fill:#9c943d; stroke:none;" d="M168 202L169 203L168 202M171 202L172 203L171 202M332.333 202.667L332.667 203.333L332.333 202.667M336.333 202.667L336.667 203.333L336.333 202.667M135 203L135 208L136 208L135 203M137 203L137 208L138 208L137 203M172 203L173 204L172 203M175 203L176 204L175 203M192 203L193 204L192 203M139 204L139 207L140 207L139 204M170 204L171 205L170 204M173 204L174 205L173 204M176 204L177 205L176 204M190 204L191 205L190 204M238 204L239 205L238 204M278 204L279 205L278 204z"/>
<path style="fill:#f7d933; stroke:none;" d="M294 204L295 205L294 204z"/>
<path style="fill:#9c943d; stroke:none;" d="M174 205L175 206L174 205M177 205L178 206L177 205z"/>
<path style="fill:#f7d933; stroke:none;" d="M191 205L192 206L191 205z"/>
<path style="fill:#9c943d; stroke:none;" d="M276.667 205.333L277.333 205.667L276.667 205.333M280 205L281 206L280 205z"/>
<path style="fill:#f7d933; stroke:none;" d="M293 205L294 206L293 205z"/>
<path style="fill:#9c943d; stroke:none;" d="M296 205L297 206L296 205M299 205L300 206L299 205M175 206L176 207L175 206M178 206L179 207L178 206M193 206L194 207L193 206M196 206L197 207L196 206M275 206L276 207L275 206z"/>
<path style="fill:#f7d933; stroke:none;" d="M279 206L280 207L279 206z"/>
<path style="fill:#9c943d; stroke:none;" d="M292 206L293 207L292 206M295 206L296 207L295 206M298 206L299 207L298 206M176 207L177 208L176 207M179 207L180 208L179 207z"/>
<path style="fill:#f7d933; stroke:none;" d="M194 207L195 208L194 207z"/>
<path style="fill:#9c943d; stroke:none;" d="M198 207L199 208L198 207M238 207L239 208L238 207M251 207L249 209L249 210C251.251 209.527 252.118 209.14 251 207M274 207L275 208L274 207M277 207L278 208L277 207M291 207L292 208L291 207M294 207L295 208L294 207M297 207L298 208L297 207z"/>
<path style="fill:#f7d933; stroke:none;" d="M135 208L136 209L135 208M181 208L182 209L181 208z"/>
<path style="fill:#9c943d; stroke:none;" d="M196 208L197 209L196 208M199 208L200 209L199 208M236 208L237 209L236 208M248 208L249 209L248 208M255 208L256 209L255 208M257 208L258 211L257 208M272 208L273 209L272 208M276 208L277 209L276 208M290 208L291 209L290 208M293 208L294 209L293 208M336 208L336 211L337 211L336 208M182 209L183 210L182 209M197 209L198 210L197 209M200.667 209.333L201.333 209.667L200.667 209.333M271 209L272 210L271 209M274 209L275 210L274 209z"/>
<path style="fill:#f7d933; stroke:none;" d="M275 209L276 210L275 209z"/>
<path style="fill:#fefefd; stroke:none;" d="M293 209L294 210L293 209z"/>
<path style="fill:#9c943d; stroke:none;" d="M332 209L333 210L332 209M334.333 209.667L334.667 210.333L334.333 209.667M180 210L181 211L180 210M183 210L184 211L183 210M198.667 210.333L199.333 210.667L198.667 210.333M202 210L203 211L202 210M255 210L256 211L255 210M273 210L274 211L273 210M287 210L288 211L287 210M290 210L291 211L290 210M294 210L295 211L294 210M140.333 211.667L140.667 212.333L140.333 211.667M178 211L179 212L178 211M181 211L182 212L181 211M200 211L201 212L200 211M224 211L225 212L224 211M256 211L257 212L256 211M268 211L269 212L268 211M271 211L272 212L271 211M286 211L287 212L286 211M289 211L290 212L289 211M292.667 211.333L293.333 211.667L292.667 211.333M136 212L137 213L136 212M138 212L139 213L138 212M179 212L180 213L179 212M186 212L187 213L186 212M205 212L206 213L205 212M270 212L271 213L270 212M284 212L285 213L284 212M288 212L289 213L288 212M291 212L292 213L291 212M184 213L185 214L184 213M203 213L204 214L203 213M225 213L226 214L225 213M235 213L236 214L235 213M265 213L266 214L265 213M283 213L284 214L283 213M286 213L287 214L286 213M333 213L334 214L333 213M335 213L336 214L335 213M141 214L142 215L141 214M182 214L183 215L182 214M185 214L186 215L185 214M189 214L190 215L189 214z"/>
<path style="fill:#f7d933; stroke:none;" d="M204 214L205 215L204 214z"/>
<path style="fill:#9c943d; stroke:none;" d="M208 214L209 215L208 214M226 214L227 215L226 214M264 214L265 215L264 214M267 214L268 215L267 214M281 214L282 215L281 214M285 214L286 215L285 214z"/>
<path style="fill:#f7d933; stroke:none;" d="M335 214L336 215L335 214z"/>
<path style="fill:#9c943d; stroke:none;" d="M137 215L138 216L137 215M139 215L140 216L139 215M183 215L184 216L183 215M187 215L188 216L187 215M191 215L192 216L191 215M206 215L207 216L206 215M209 215L210 216L209 215M262 215L263 216L262 215M266 215L267 216L266 215M280 215L281 216L280 215M330 215L331 216L330 215M188 216L189 217L188 216M192 216L193 217L192 216z"/>
<path style="fill:#f7d933; stroke:none;" d="M193 216L194 217L193 216z"/>
<path style="fill:#9c943d; stroke:none;" d="M207 216L208 217L207 216M237 216L238 217L237 216M261 216L262 217L261 216M264 216L265 217L264 216z"/>
<path style="fill:#f7d933; stroke:none;" d="M265 216L266 217L265 216z"/>
<path style="fill:#9c943d; stroke:none;" d="M278 216L279 217L278 216M282 216L283 217L282 216M286 216L287 217L286 216M334 216L335 217L334 216M140 217L141 218L140 217M190 217L191 218L190 217M194 217L195 218L194 217M212 217L213 218L212 217M263 217L264 218L263 217M276 217L277 218L276 217M280 217L281 218L280 217M329 217L330 218L329 217M138 218L139 219L138 218M188 218L189 219L188 218M192 218L193 219L192 218M196 218L197 219L196 218M210 218L211 219L210 218M214 218L215 219L214 218M228.333 218.667L228.667 219.333L228.333 218.667M258 218L259 219L258 218M261 218L262 219L261 218M274 218L275 219L274 218M278 218L279 219L278 218M333 218L334 219L333 218M139.333 219.667L139.667 220.333L139.333 219.667M141 219L142 220L141 219M194 219L195 220L194 219M198 219L199 220L198 219M215 219L216 220L215 219M239 219L239 222L240 222L239 219M260 219L261 220L260 219M272.667 219.333L273.333 219.667L272.667 219.333M281 219L282 220L281 219z"/>
<path style="fill:#fefefd; stroke:none;" d="M329 219L330 220L329 219z"/>
<path style="fill:#9c943d; stroke:none;" d="M330 219L331 220L330 219M144 220L145 221L144 220M196 220L197 221L196 220M200.667 220.333L201.333 220.667L200.667 220.333M213 220L214 221L213 220M216 220L217 221L216 220M255 220L256 221L255 220M270 220L271 221L270 220M275 220L276 221L275 220M279 220L280 221L279 220M327 220L328 221L327 220M332 220L333 221L332 220M140 221L141 222L140 221M142 221L143 222L142 221M145 221L146 222L145 221M193 221L194 222L193 221M197.667 221.333L198.333 221.667L197.667 221.333M203 221L204 222L203 221z"/>
<path style="fill:#f7d933; stroke:none;" d="M214 221L215 222L214 221z"/>
<path style="fill:#9c943d; stroke:none;" d="M218 221L219 222L218 221M257 221L258 222L257 221z"/>
<path style="fill:#f7d933; stroke:none;" d="M267 221L268 222L267 221z"/>
<path style="fill:#9c943d; stroke:none;" d="M268 221L269 222L268 221M273 221L274 222L273 221M277 221L278 222L277 221M326 221L327 222L326 221M331 221L332 222L331 221M143 222L144 223L143 222M200 222L201 223L200 222M205 222L206 223L205 222z"/>
<path style="fill:#f7d933; stroke:none;" d="M206 222L207 223L206 222z"/>
<path style="fill:#9c943d; stroke:none;" d="M216 222L217 223L216 222M219 222L220 223L219 222M238 222L239 223L238 222M252 222L253 223L252 222M265 222L266 223L265 222M270.667 222.333L271.333 222.667L270.667 222.333M275 222L276 223L275 222M291 222L291 223L294 223L291 222M328 222L329 223L328 222M330 222L331 223L330 222z"/>
<path style="fill:#f7d933; stroke:none;" d="M141 223L142 224L141 223z"/>
<path style="fill:#9c943d; stroke:none;" d="M181 223L182 224L181 223z"/>
<path style="fill:#f7d933; stroke:none;" d="M198 231L194 230C192.718 231.945 180.163 251.286 179.708 238.905C179.529 234.028 184.221 228.993 185 224C167.53 224.785 177.186 255.938 190.366 245.142C191.975 243.824 192.974 241.759 193.999 239.995C195.698 237.074 197.065 234.241 198 231z"/>
<path style="fill:#9c943d; stroke:none;" d="M183 223L184 224L183 223M203 223L204 224L203 223M208 223L209 224L208 223z"/>
<path style="fill:#f7d933; stroke:none;" d="M209 223L210 224L209 223z"/>
<path style="fill:#9c943d; stroke:none;" d="M217 223L218 224L217 223M237 223L238 224L237 223M251 223L252 224L251 223M254 223L255 224L254 223M262.667 223.333L263.333 223.667L262.667 223.333M268 223L269 224L268 223M273 223L274 224L273 223M287 223L288 224L287 223z"/>
<path style="fill:#f7d933; stroke:none;" d="M279 228C279.577 230.993 280.67 233.327 282.154 236C283.584 238.577 284.987 242.543 287.471 244.292C298.772 252.248 310.652 218.289 289 223.419C285.478 224.253 282.31 226.574 279 228z"/>
<path style="fill:#9c943d; stroke:none;" d="M327 223L328 224L327 223M142 224L143 225L142 224M147 224L148 225L147 224M205 224L206 225L205 224M211.667 224.333L212.333 224.667L211.667 224.333M222 224L223 225L222 224M228 224L229 225L228 224M249 224L250 225L249 224M253 224L254 225L253 224M259 224L260 225L259 224M265 224L266 225L265 224M271 224L272 225L271 224M285 224L286 225L285 224M297 224L298 225L297 224M324 224L325 225L324 224M329 224L330 225L329 224M143 225L144 226L143 225M148 225L149 226L148 225M185.333 225.667L185.667 226.333L185.333 225.667M202 225L203 226L202 225M208 225L209 226L208 225M215 225L216 226L215 225z"/>
<path style="fill:#f7d933; stroke:none;" d="M216.667 225.333L217.333 225.667L216.667 225.333z"/>
<path style="fill:#9c943d; stroke:none;" d="M219 227L222 227L221 225L219 227M223 225L224 226L223 225M229 225L230 226L229 225M232 225L233 226L232 225M248 225L249 226L248 225M251 225L251 227L253 227L251 225z"/>
<path style="fill:#f7d933; stroke:none;" d="M254 225L255 226L254 225z"/>
<path style="fill:#9c943d; stroke:none;" d="M255.667 225.333L256.333 225.667L255.667 225.333M262.667 225.333L263.333 225.667L262.667 225.333M268.667 225.333L269.333 225.667L268.667 225.333M284 225L285 226L284 225M298 225L299 226L298 225M323 225L324 226L323 225M328 225L329 226L328 225M146 226L148 228L146 226z"/>
<path style="fill:#fefefd; stroke:none;" d="M147 226L148 227L147 226z"/>
<path style="fill:#9c943d; stroke:none;" d="M205 226L206 227L205 226M210 226L210 227L213 227L210 226M225 226L226 227L225 226z"/>
<path style="fill:#fefefd; stroke:none;" d="M245 226L246 227L245 226z"/>
<path style="fill:#9c943d; stroke:none;" d="M259 226L260 227L259 226M266.667 226.333L267.333 226.667L266.667 226.333M282 226L283 227L282 226M299 226L300 227L299 226M327 226L328 227L327 226M150 227L151 228L150 227M184 227L185 228L184 227M208 227L209 228L208 227z"/>
<path style="fill:#fefefd; stroke:none;" d="M211 227L212 228L211 227z"/>
<path style="fill:#f7d933; stroke:none;" d="M212 227L212 228L227 231L227 230L212 227z"/>
<path style="fill:#9c943d; stroke:none;" d="M214.667 227.333L215.333 227.667L214.667 227.333M226 227L227 228L226 227M245 227L246 228L245 227M256 227L257 228L256 227M263 227L264 228L263 227z"/>
<path style="fill:#e34a29; stroke:none;" d="M287.361 228.047C283.217 230.784 289.009 241.434 293.786 238.914C300.275 235.491 292.885 224.399 287.361 228.047z"/>
<path style="fill:#9c943d; stroke:none;" d="M292 227L293 228L292 227M324 227L325 228L324 227M148 228L149 229L148 228M151 228L152 229L151 228M210 228L210 229L213 229L210 228z"/>
<path style="fill:#fefefd; stroke:none;" d="M216 228L217 229L216 228z"/>
<path style="fill:#9c943d; stroke:none;" d="M219 228L219 229L222 229L219 228M249 228L249 229L253 229L249 228z"/>
<path style="fill:#f7d933; stroke:none;" d="M245 230L245 231L255 228L245 230z"/>
<path style="fill:#fefefd; stroke:none;" d="M255 228L256 229L255 228z"/>
<path style="fill:#9c943d; stroke:none;" d="M259 228L260 229L259 228M285 228L286 229L285 228M293 228L294 229L293 228M323 228L324 229L323 228M146 229L147 230L146 229M149 229L150 230L149 229M195 229L196 230L195 229M214.667 229.333L215.333 229.667L214.667 229.333M225.667 229.333L226.333 229.667L225.667 229.333M229 229L230 230L229 229M242 229L243 230L242 229M246 229L247 230L246 229M255.667 229.333L256.333 229.667L255.667 229.333M284 229L285 230L284 229M294 229L295 230L294 229M322 229L323 230L322 229z"/>
<path style="fill:#f7d933; stroke:none;" d="M325 229L326 230L325 229z"/>
<path style="fill:#9c943d; stroke:none;" d="M147 230L148 231L147 230M177 230L178 231L177 230M196 230L197 231L196 230M220 230L221 231L220 230M227.333 230.667L227.667 231.333L227.333 230.667M230 230L231 231L230 230M241 230L242 231L241 230M244.333 230.667L244.667 231.333L244.333 230.667M250.667 230.333L251.333 230.667L250.667 230.333M295 230L296 231L295 230M301 230L302 231L301 230M321 230L322 231L321 230M324 230L325 231L324 230M148 231L149 232L148 231M153 231L154 232L153 231M182 231L183 232L182 231M232 231L233 232L232 231M239 231L240 232L239 231M285 231L286 232L285 231M323 231L324 232L323 231M149 232L150 233L149 232M192 232L193 233L192 232M203 232L204 233L203 232z"/>
<path style="fill:#f7d933; stroke:none;" d="M204 232L199 252L204 253L206 241L207 241C209.493 246.995 211.71 254.257 218 257C220.288 251.683 226.079 238.855 219 236L215 248C212.551 242.117 210.142 234.685 204 232z"/>
<path style="fill:#9c943d; stroke:none;" d="M205 232L206 233L205 232M233 232L234 233L233 232M238 232L239 233L238 232z"/>
<path style="fill:#f7d933; stroke:none;" d="M261 236L268 255L281 250L281 249C275.125 248.138 272.464 251.132 269 245L275 240L268 242L266 237L272 233L261 236z"/>
<path style="fill:#9c943d; stroke:none;" d="M271 232L272 233L271 232M296 232L297 233L296 232M322 232L323 233L322 232M150 233L151 234L150 233M155 233L156 234L155 233M181 233L182 234L181 233M197 233L198 234L197 233M235.667 233.333L236.333 233.667L235.667 233.333M267 233L268 234L267 233M286 233L287 234L286 233M318 233L319 234L318 233M321 233L322 234L321 233M151 234L152 235L151 234M281 234L282 235L281 234z"/>
<path style="fill:#fefefd; stroke:none;" d="M316 234L317 235L316 234z"/>
<path style="fill:#9c943d; stroke:none;" d="M320 234L321 235L320 234M152 235L153 236L152 235M180 235L181 236L180 235M262 235L263 236L262 235M270 235L271 236L270 235M287 235L288 236L287 235M319 235L320 236L319 235M153 236L154 237L153 236M159 236L160 237L159 236M202 236L203 237L202 236M209 236L210 237L209 236M221 236L222 237L221 236M282 236L283 237L282 236M296 236L297 237L296 236M301 236L302 237L301 236M315 236L316 237L315 236M318 236L319 237L318 236M154 237L155 238L154 237M160 237L161 238L160 237M266 237L267 238L266 237M311 237L312 238L311 237M314 237L315 238L314 237M317 237L318 238L317 237M155 238L156 239L155 238M158 238L159 239L158 238M161 238L162 239L161 238M174.333 238.667L174.667 239.333L174.333 238.667M247 238L247 239L250 239L247 238z"/>
<path style="fill:#f7d933; stroke:none;" d="M240 242L247 242L249 259L253 259L251 241L257 238C251.874 238.042 243.315 237.645 240 242z"/>
<path style="fill:#9c943d; stroke:none;" d="M283 238L284 239L283 238M295 238L296 239L295 238M300 238L301 239L300 238M310 238L311 239L310 238M313 238L314 239L313 238M316 238L317 239L316 238M156 239L157 240L156 239M159 239L161 241L159 239z"/>
<path style="fill:#fefefd; stroke:none;" d="M160 239L161 240L160 239z"/>
<path style="fill:#9c943d; stroke:none;" d="M162 239L163 240L162 239M201 239L201 242L202 242L201 239M231 239L232 240L231 239z"/>
<path style="fill:#f7d933; stroke:none;" d="M230 260C237.729 258.71 235.728 244.845 234 239C227.34 241.677 230 253.911 230 260z"/>
<path style="fill:#9c943d; stroke:none;" d="M234 239L235 240L234 239M242 239L243 240L242 239M294 239L295 240L294 239M299 239L300 240L299 239M309 239L310 240L309 239M312 239L313 240L312 239M315 239L316 240L315 239M157 240L158 241L157 240M163 240L164 241L163 240M179.333 240.667L179.667 241.333L179.333 240.667M193 240L194 241L193 240M211 240L212 241L211 240M217.333 240.667L217.667 241.333L217.333 240.667M255 240L256 241L255 240M290 240L290 241L293 241L290 240M311 240L312 241L311 240M314 240L315 241L314 240M158 241L159 242L158 241M187 241L188 242L187 241M206 241L206 243L208 243L206 241M251 241L251 244L252 244L251 241M262 241L263 242L262 241M285 241L286 242L285 241M297 241L298 242L297 241M313 241L314 242L313 241M166 242L167 243L166 242M176 242L177 243L176 242M186 242L187 243L186 242M192 242L193 243L192 242M241 242L241 243L244 243L241 242M246 242L247 243L246 242M305 242L306 243L305 242M308 242L309 243L308 242M311 242L312 243L311 242M161 243L162 244L161 243M164 243L165 244L164 243M177 243L178 244L177 243M182 243L182 244L185 244L182 243M200.333 243.667L200.667 244.333L200.333 243.667M263 243L264 244L263 243M272.667 243.333L273.333 243.667L272.667 243.333M304 243L305 244L304 243M307 243L308 244L307 243M310 243L311 244L310 243M162 244L163 245L162 244M165 244L166 245L165 244M169 244L170 245L169 244M191.333 244.667L191.667 245.333L191.333 244.667M208 244L209 245L208 244M213 244L214 245L213 244M216.333 244.667L216.667 245.333L216.333 244.667M270 244L271 245L270 244M292 244L293 245L292 244z"/>
<path style="fill:#f7d933; stroke:none;" d="M303 244C278.199 262.91 244.289 268.884 214 263.386C203.025 261.394 190.693 252.919 180 253C203.652 272.523 248.055 269.683 275 260.667C281.241 258.578 303.188 251.8 303 244z"/>
<path style="fill:#fefefd; stroke:none;" d="M304 244L305 245L304 244z"/>
<path style="fill:#9c943d; stroke:none;" d="M306 244L307 245L306 244M309 244L310 245L309 244M163 245L164 246L163 245M167 245L168 246L167 245M170 245L171 246L170 245M205 245L206 246L205 245M221.333 245.667L221.667 246.333L221.333 245.667M269 245L270 246L269 245M287 245L288 246L287 245M290 245L291 246L290 245M301 245L302 246L301 245M304 245L305 246L304 245M308 245L309 246L308 245z"/>
<path style="fill:#f7d933; stroke:none;" d="M164 246L165 247L164 246z"/>
<path style="fill:#9c943d; stroke:none;" d="M168 246L169 247L168 246M188 246L189 247L188 246M209 246L210 247L209 246M214 246L215 247L214 246M264 246L265 247L264 246M303 246L304 247L303 246M306 246L307 247L306 246M166 247L167 248L166 247M169 247L170 248L169 247M173 247L174 248L173 247M215 247L216 248L215 247M298 247L299 248L298 247M301 247L302 248L301 247M305 247L306 248L305 247M171 248L172 249L171 248M175 248L176 249L175 248M210 248L211 249L210 248M247.333 248.667L247.667 249.333L247.333 248.667M252 248L252 251L253 251L252 248M270 248L271 249L270 248M277 248L278 249L277 248M296 248L297 249L296 248M300 248L301 249L300 248M169 249L170 250L169 249M173 249L174 250L173 249M199 249L200 250L199 249M204 249L205 250L204 249M220 249L221 250L220 249M272 251L275 250L272 251M298 249L299 250L298 249M302 249L303 250L302 249z"/>
<path style="fill:#f7d933; stroke:none;" d="M170 250L171 251L170 250z"/>
<path style="fill:#9c943d; stroke:none;" d="M174 250L175 251L174 250M178 250L179 251L178 250M297 250L298 251L297 250M172 251L173 252L172 251M176 251L177 252L176 251M180 251L181 252L180 251M266 251L267 252L266 251M277.667 251.333L278.333 251.667L277.667 251.333M291 251L292 252L291 251M295 251L296 252L295 251M299 251L300 252L299 251M174 252L175 253L174 252M178 252L180 254L178 252z"/>
<path style="fill:#fefefd; stroke:none;" d="M179.667 252.333L180.333 252.667L179.667 252.333z"/>
<path style="fill:#9c943d; stroke:none;" d="M182 252L183 253L182 252M199 252L200 253L199 252M212 252L213 253L212 252M289 252L290 253L289 252M293 252L294 253L293 252M297 252L298 253L297 252z"/>
<path style="fill:#f7d933; stroke:none;" d="M175 253L176 254L175 253z"/>
<path style="fill:#9c943d; stroke:none;" d="M184 253L185 254L184 253M219.333 253.667L219.667 254.333L219.333 253.667M267 253L268 254L267 253M287 253L288 254L287 253M291 253L292 254L291 253M177 254L178 255L177 254M181 254L182 255L181 254M186 254L187 255L186 254M213 254L214 255L213 254M271 254L272 255L271 254M285 254L286 255L285 254M290 254L291 255L290 254M294 254L295 255L294 254M179 255L180 256L179 255M183 255L184 256L183 255M188 255L189 256L188 255M253 255L253 258L254 258L253 255M283 255L284 256L283 255M288 255L289 256L288 255M292 255L293 256L292 255M181 256L182 257L181 256M185 256L186 257L185 256M191 256L192 257L191 256M215.667 256.333L216.333 256.667L215.667 256.333M218 256L219 257L218 256M248.333 256.667L248.667 257.333L248.333 256.667M280 256L281 257L280 256M285.667 256.333L286.333 256.667L285.667 256.333M290 256L291 257L290 256z"/>
<path style="fill:#f7d933; stroke:none;" d="M182 257L183 258L182 257z"/>
<path style="fill:#9c943d; stroke:none;" d="M183 257L184 258L183 257M188 257L189 258L188 257M193 257L194 258L193 257M278 257L279 258L278 257M283 257L284 258L283 257M288 257L289 258L288 257M185 258L186 259L185 258M190 258L191 259L190 258M281 258L282 259L281 258M286 258L287 259L286 258z"/>
<path style="fill:#f7d933; stroke:none;" d="M187 259L188 260L187 259z"/>
<path style="fill:#9c943d; stroke:none;" d="M188 259L189 260L188 259M192.667 259.333L193.333 259.667L192.667 259.333M198 259L199 260L198 259M272 259L273 260L272 259M278 259L279 260L278 259M283 259L284 260L283 259z"/>
<path style="fill:#f7d933; stroke:none;" d="M284 259L285 260L284 259z"/>
<path style="fill:#9c943d; stroke:none;" d="M190 260L191 261L190 260M195 260L196 261L195 260M202 260L203 261L202 260M269 260L270 261L269 260M275.667 260.333L276.333 260.667L275.667 260.333M281 260L282 261L281 260M192 261L193 262L192 261M198 261L199 262L198 261M205 261L206 262L205 261M265 261L266 262L265 261M272.667 261.333L273.333 261.667L272.667 261.333M278.667 261.333L279.333 261.667L278.667 261.333M195 262L196 263L195 262M201.667 262.333L202.333 262.667L201.667 262.333M209.667 262.333L210.333 262.667L209.667 262.333M261.667 262.333L262.333 262.667L261.667 262.333M269.667 262.333L270.333 262.667L269.667 262.333M275.667 262.333L276.333 262.667L275.667 262.333M198 263L199 264L198 263M205 263L206 264L205 263M214.667 263.333L215.333 263.667L214.667 263.333M254 263L254 264L258 264L254 263M266 263L267 264L266 263M273 263L274 264L273 263M201 264L202 265L201 264M208 264L208 265L211 265L208 264M221.667 264.333L222.333 264.667L221.667 264.333M249.667 264.333L250.333 264.667L249.667 264.333M261 264L261 265L264 265L261 264M271 264L271 267L272 267L271 264M202.333 265.667L202.667 266.333L202.333 265.667M204 267L207 266L204 267M213 265L213 266L216 266L213 265M237 265L237 266L240 266L237 265M241 265L242 266L241 265M256.667 265.333L257.333 265.667L256.667 265.333M266.667 265.333L267.333 265.667L266.667 265.333z"/>
<path style="fill:#f7d933; stroke:none;" d="M268 265L253 268L252 271C256.504 272.641 270.753 273.861 268 265z"/>
<path style="fill:#9c943d; stroke:none;" d="M269.333 265.667L269.667 266.333L269.333 265.667z"/>
<path style="fill:#f7d933; stroke:none;" d="M205 266C206.903 277.42 218.669 270.167 222 271L222 270L217 270L205 266z"/>
<path style="fill:#9c943d; stroke:none;" d="M209.667 266.333L210.333 266.667L209.667 266.333M219 266L219 267L224 267L219 266M249 266L249 267L253 267L249 266M261.667 266.333L262.333 266.667L261.667 266.333z"/>
<path style="fill:#fefefd; stroke:none;" d="M268 266L269 267L268 266z"/>
<path style="fill:#f7d933; stroke:none;" d="M202 267L203 268L202 267z"/>
<path style="fill:#9c943d; stroke:none;" d="M213 267L213 268L216 268L213 267M230 267L230 268L242 268L230 267M259 267L260 268L259 267M205 268L206 269L205 268M217 268L219 270L217 268M220 268L220 269L223 269L220 268M250 268L251 271L252 271L253 269L250 268M254 268L254 269L258 269L254 268M268 268L269 269L268 268M270 268L271 269L270 268z"/>
<path style="fill:#f7d933; stroke:none;" d="M203 269L204 270L203 269z"/>
<path style="fill:#443e11; stroke:none;" d="M217 269L218 270L217 269z"/>
<path style="fill:#fefefd; stroke:none;" d="M221.667 269.333L222.333 269.667L221.667 269.333z"/>
<path style="fill:#9c943d; stroke:none;" d="M225.667 269.333L226.333 269.667L225.667 269.333M228 269L229 270L228 269z"/>
<path style="fill:#f7d933; stroke:none;" d="M229 269C231.203 277.557 240.178 276.899 245 271L240 272L239 272L229 269z"/>
<path style="fill:#9c943d; stroke:none;" d="M230 269L230 270L240 270L230 269M243 269L244 270L243 269z"/>
<path style="fill:#fefefd; stroke:none;" d="M243 271L246 269L243 271z"/>
<path style="fill:#9c943d; stroke:none;" d="M248 269L249 270L248 269z"/>
<path style="fill:#fefefd; stroke:none;" d="M251.667 269.333L252.333 269.667L251.667 269.333z"/>
<path style="fill:#9c943d; stroke:none;" d="M267 269L268 270L267 269M204 270L205 271L204 270M207 270L208 271L207 270z"/>
<path style="fill:#fefefd; stroke:none;" d="M220 270L221 271L220 270z"/>
<path style="fill:#9c943d; stroke:none;" d="M224 270L225 271L224 270z"/>
<path style="fill:#f7d933; stroke:none;" d="M226 270L227 271L226 270z"/>
<path style="fill:#fefefd; stroke:none;" d="M229 270L230 271L229 270z"/>
<path style="fill:#9c943d; stroke:none;" d="M245 270L246 271L245 270M247.333 270.667L247.667 271.333L247.333 270.667M266 270L267 271L266 270M269 270L270 271L269 270M205 271L206 272L205 271M208 271L209 272L208 271M220 271L221 272L220 271M223 271L224 272L223 271M239 271L240 272L239 271M253 271L254 272L253 271M265 271L266 272L265 271M268 271L269 272L268 271M206 272L207 273L206 272M210 272L211 273L210 272M218 272L219 273L218 272M222 272L223 273L222 272M227 272L228 273L227 272z"/>
<path style="fill:#fefefd; stroke:none;" d="M243 272L244 273L243 272z"/>
<path style="fill:#9c943d; stroke:none;" d="M244 272L245 273L244 272M246 272L247 273L246 272M251 272L252 273L251 272M255 272L256 273L255 272M262.667 272.333L263.333 272.667L262.667 272.333M267 272L268 273L267 272M208 273L209 274L208 273M220.667 273.333L221.333 273.667L220.667 273.333M228 273L229 274L228 273M243 273L244 274L243 273M252 273L253 274L252 273M265 273L266 274L265 273M210.667 274.333L211.333 274.667L210.667 274.333M217.667 274.333L218.333 274.667L217.667 274.333M242 274L243 275L242 274M245 274L246 275L245 274M254.667 274.333L255.333 274.667L254.667 274.333M262.667 274.333L263.333 274.667L262.667 274.333M230 275L231 276L230 275M234 275L235 276L234 275M240 275L241 276L240 275z"/>
<path style="fill:#f7d933; stroke:none;" d="M244 275L245 276L244 275z"/>
<path style="fill:#9c943d; stroke:none;" d="M231 276L232 277L231 276M242 276L243 277L242 276z"/>
<path style="fill:#f7d933; stroke:none;" d="M243 276L244 277L243 276z"/>
<path style="fill:#9c943d; stroke:none;" d="M233.667 277.333L234.333 277.667L233.667 277.333M240 277L241 278L240 277z"/>
<path style="fill:#f7d933; stroke:none;" d="M241 277L242 278L241 277z"/>
</svg>
